<?xml version="1.0" encoding="UTF-8" standalone="no"?>
<svg
   xmlns:dc="http://purl.org/dc/elements/1.1/"
   xmlns:cc="http://creativecommons.org/ns#"
   xmlns:rdf="http://www.w3.org/1999/02/22-rdf-syntax-ns#"
   xmlns:svg="http://www.w3.org/2000/svg"
   xmlns="http://www.w3.org/2000/svg"
   id="svg717"
   version="1.1"
   viewBox="0 0 57.150025 18.800945"
   height="18.800945mm"
   width="57.150024mm">
  <defs
     id="defs711">
    <filter
       id="filter4781"
       style="color-interpolation-filters:sRGB">
      <feFlood
         id="feFlood4783"
         result="flood"
         flood-color="rgb(0,0,0)"
         flood-opacity="0.623529" />
      <feComposite
         id="feComposite4785"
         result="composite1"
         operator="in"
         in2="SourceGraphic"
         in="flood" />
      <feGaussianBlur
         id="feGaussianBlur4787"
         result="blur"
         stdDeviation="2"
         in="composite1" />
      <feOffset
         id="feOffset4789"
         result="offset"
         dy="2"
         dx="1.38778e-16" />
      <feComposite
         id="feComposite4791"
         result="composite2"
         operator="over"
         in2="offset"
         in="SourceGraphic" />
    </filter>
    <filter
       id="filter4805"
       style="color-interpolation-filters:sRGB">
      <feFlood
         id="feFlood4807"
         result="flood"
         flood-color="rgb(0,0,0)"
         flood-opacity="0.623529" />
      <feComposite
         id="feComposite4809"
         result="composite1"
         operator="in"
         in2="SourceGraphic"
         in="flood" />
      <feGaussianBlur
         id="feGaussianBlur4811"
         result="blur"
         stdDeviation="2"
         in="composite1" />
      <feOffset
         id="feOffset4813"
         result="offset"
         dy="2"
         dx="1.38778e-16" />
      <feComposite
         id="feComposite4815"
         result="composite2"
         operator="over"
         in2="offset"
         in="SourceGraphic" />
    </filter>
    <filter
       id="filter4793"
       style="color-interpolation-filters:sRGB">
      <feFlood
         id="feFlood4795"
         result="flood"
         flood-color="rgb(0,0,0)"
         flood-opacity="0.623529" />
      <feComposite
         id="feComposite4797"
         result="composite1"
         operator="in"
         in2="SourceGraphic"
         in="flood" />
      <feGaussianBlur
         id="feGaussianBlur4799"
         result="blur"
         stdDeviation="2"
         in="composite1" />
      <feOffset
         id="feOffset4801"
         result="offset"
         dy="2"
         dx="1.38778e-16" />
      <feComposite
         id="feComposite4803"
         result="composite2"
         operator="over"
         in2="offset"
         in="SourceGraphic" />
    </filter>
  </defs>
  <metadata
     id="metadata714">
    <rdf:RDF>
      <cc:Work
         rdf:about="">
        <dc:format>image/svg+xml</dc:format>
        <dc:type
           rdf:resource="http://purl.org/dc/dcmitype/StillImage" />
        <dc:title></dc:title>
      </cc:Work>
    </rdf:RDF>
  </metadata>
  <g
     transform="translate(-23.267177,-186.64095)"
     id="layer1">
    <path
       transform="matrix(0.26458333,0,0,0.26458333,23.267177,186.64095)"
       id="path4169"
       d="m 21.551764,64.560631 c -0.67343,-0.3188 -1.57698,-0.9514 -2.00788,-1.4056 -1.63546,-1.724 -1.54292,-0.066 -1.54292,-27.6406 0,-27.5752996 -0.0921,-25.9263996 1.54292,-27.6320996 0.43091,-0.4496 1.22425,-1.0556 1.76301,-1.3469 l 0.97952,-0.5295 85.213346,-0.063 c 75.54042,-0.055 85.34012,-0.021 86.32932,0.308 1.4365,0.4772 2.8077,1.6151 3.4951,2.9006 l 0.5439,1.0169996 0.066,25.0447 0.066,25.0447 -0.5252,1.2209 c -0.5867,1.3637 -1.7694,2.5245 -3.2635,3.2031 -0.9619,0.4369 -3.8834,0.4523 -86.21519,0.4552 H 22.776684 l -1.22442,-0.5798 z m 97.141076,-7.8959 c 0.73518,-0.1215 1.11187,-0.4195 2.03802,-1.6122 0.62489,-0.8047 1.08762,-1.5115 1.02833,-1.5709 -0.0593,-0.059 -0.59072,0 -1.18092,0.1396 -2.24901,0.5185 -4.04978,0.1478 -5.2858,-1.0882 -0.67217,-0.6721 -0.80738,-0.9905 -0.80738,-1.9008 0,-1.9551 1.08338,-2.8017 5.02011,-3.9233 1.21219,-0.3453 2.38512,-0.6985 2.6065,-0.7849 0.36081,-0.1406 0.41252,0.245 0.49851,3.7161 0.0768,3.0994 0.18221,4.0343 0.52769,4.6798 0.65707,1.228 2.27662,2.067 4.43786,2.2991 0.63421,0.068 0.84061,-0.089 1.66425,-1.2658 l 0.94021,-1.3436 -1.08318,-0.2764 c -1.43432,-0.3659 -1.62248,-0.5021 -2.02539,-1.4664 -0.25422,-0.6084 -0.34235,-2.0719 -0.34235,-5.6859 0,-6.8139 -0.47088,-8.0992 -3.51665,-9.5987 -1.66484,-0.8196 -4.36927,-1.207 -6.12549,-0.8775 l -0.88784,0.1665 v 1.4758 1.4758 l 1.33646,-0.1669 c 2.67498,-0.3342 5.03052,0.7615 5.03052,2.3401 0,1.7184 -0.77157,2.1881 -5.63235,3.4285 -4.19024,1.0692 -5.63578,1.9552 -6.47771,3.9702 -0.76912,1.8408 -0.33093,4.2184 1.04204,5.654 1.69051,1.7677 4.56021,2.6516 7.19457,2.216 z m -72.034886,-0.5496 c 0.74533,-0.2313 0.98856,-0.5221 1.78759,-2.1369 0.50867,-1.028 0.88913,-1.9048 0.84546,-1.9485 -0.0437,-0.044 -0.73789,0.2445 -1.5427,0.6404 -4.67627,2.3003 -10.28753,0.6834 -12.3801,-3.5672 -0.72048,-1.4634 -0.77007,-1.7232 -0.66498,-3.4831 0.13622,-2.2812 0.67438,-3.4602 2.23674,-4.9003 2.42229,-2.2329 6.49668,-2.3035 9.40628,-0.1633 l 0.55098,0.4054 v -2.2053 c 0,-2.6053 0.19388,-2.4597 -3.55081,-2.6658 -4.42295,-0.2434 -8.02265,0.9657 -10.41913,3.4996 -1.87564,1.9832 -2.52139,3.5952 -2.63457,6.5767 -0.0793,2.0898 -0.0119,2.6642 0.4593,3.9181 1.0169,2.7056 4.22687,5.2853 7.65947,6.1556 1.474,0.3737 6.90418,0.2911 8.24648,-0.1254 z m 20.80949,0.014 1.59175,-0.4118 1.07408,-2.0642 1.07407,-2.0641 -0.8292,0.4856 c -1.4563,0.8529 -2.81899,1.2895 -4.80042,1.5379 -5.14983,0.6458 -8.81671,-1.925 -9.48523,-6.6497 l -0.16459,-1.1632 h 7.6064 7.6064 v -1.0584 c 0,-4.2676 -3.79818,-8.0777 -8.38969,-8.416 -5.79701,-0.4272 -10.21555,2.8145 -11.19429,8.2127 -0.33906,1.8701 -0.0223,4.386 0.7623,6.0552 1.14931,2.4451 3.92245,4.6613 6.8978,5.5126 2.00452,0.5735 6.07997,0.5851 8.25062,0.023 z m -11.26464,-13.033 c 0,-0.4312 0.90169,-2.0485 1.38643,-2.4869 0.84599,-0.765 2.62549,-1.4106 3.90324,-1.4161 2.255,-0.01 3.94358,0.8616 4.75612,2.4543 0.90416,1.7723 1.09789,1.7033 -4.78079,1.7033 -3.48123,0 -5.265,-0.086 -5.265,-0.2546 z m 44.027786,13.1276 c 3.7493,-0.998 5.92845,-3.2545 5.92845,-6.1387 0,-2.914 -1.33638,-4.2314 -5.97422,-5.8895 -3.665066,-1.3103 -3.983956,-1.4544 -4.739416,-2.1425 -0.7561,-0.6886 -0.73336,-2.0384 0.0539,-3.1985 0.33264,-0.4901 0.52471,-0.8912 0.42682,-0.8912 -0.25945,0 -4.4934,1.1761 -4.59324,1.2759 -0.29756,0.2976 -0.64842,2.4366 -0.51524,3.1414 0.42741,2.2627 1.82225,3.3644 6.65029,5.2523 2.640756,1.0325 3.687286,1.5666 4.151876,2.1188 1.7676,2.1006 -0.16381,3.9381 -4.114836,3.9145 -2.31318,-0.014 -4.3433,-0.4932 -6.36815,-1.504 -0.78714,-0.3929 -1.38035,-0.5803 -1.31813,-0.4163 0.0622,0.1639 0.36913,1.0952 0.68221,2.0694 0.55931,1.7406 0.58854,1.7775 1.68548,2.1271 1.70488,0.5433 1.92608,0.5733 4.42226,0.6007 1.30993,0.015 2.89249,-0.1252 3.621986,-0.3194 z m 80.32489,-1.1067 c 0.5653,-0.8015 1.028,-1.4903 1.0281,-1.5305 2e-4,-0.041 -0.5875,-0.037 -1.3061,0.01 -1.9559,0.122 -3.003,-0.4073 -3.6359,-1.8382 -0.4575,-1.0343 -0.527,-1.77 -0.6371,-6.7425 l -0.1236,-5.5816 h 2.1778 c 1.4529,0 2.4112,0.1233 2.8792,0.3674 0.3857,0.2011 0.7439,0.3657 0.7958,0.3657 0.1458,0 0.1117,-2.3013 -0.046,-3.0916 l -0.1403,-0.704 -2.7984,0.076 -2.7982,0.076 v -3.2139 -3.2138 l -0.7959,0.077 c -0.7175,0.069 -0.802,0.1611 -0.8579,0.9338 -0.2331,3.2204 -1.6132,5.5389 -3.7487,6.2973 -1.1147,0.396 -1.2094,0.4923 -1.2094,1.2292 v 0.7997 h 1.3468 1.3469 v 5.3424 c 0,5.8639 0.2255,7.7276 1.1218,9.2733 1.0091,1.7401 2.4425,2.4748 4.8909,2.5067 l 1.4823,0.019 1.0277,-1.4573 z m -99.512386,0.2167 -0.71925,-0.7509 v -6.1671 c 0,-5.7799 0.0316,-6.2207 0.50301,-7.0232 0.77773,-1.3239 1.90293,-1.9599 3.46745,-1.9599 0.72971,0 1.5399,0.1141 1.80042,0.2535 0.45003,0.2408 0.47367,0.1553 0.47367,-1.7143 v -1.9676 h -0.9351 c -1.63706,0 -3.50493,0.7091 -4.50683,1.711 l -0.92506,0.9251 v -1.3443 c 0,-1.1942 -0.0478,-1.3216 -0.42854,-1.1415 -0.2357,0.1115 -1.50298,0.2407 -2.81618,0.2873 -1.31318,0.046 -2.38761,0.1377 -2.38761,0.2026 0,0.065 0.30305,0.3785 0.67344,0.6969 l 0.67343,0.5791 0.0705,8.2059 0.0705,8.2058 -0.76933,0.8763 -0.76934,0.8762 h 3.62199 3.622 l -0.71925,-0.7509 z m 58.713086,-0.057 -0.7827,-0.8075 v -6.2422 c 0,-5.9864 0.023,-6.287 0.551,-7.3348 0.7059,-1.3999 1.7602,-1.9489 3.7438,-1.9494 2.0331,0 3.4602,0.7349 4.2761,2.2036 0.5997,1.0793 0.6138,1.2259 0.6888,7.1368 l 0.077,6.0349 -0.7753,0.8831 -0.7754,0.883 h 3.622 3.6221 l -0.7193,-0.7502 -0.7192,-0.7502 -0.1463,-6.6575 c -0.1571,-7.1497 -0.2855,-7.9366 -1.5707,-9.6215 -0.333,-0.4365 -1.2399,-1.1053 -2.0155,-1.4861 -1.2472,-0.6125 -1.6788,-0.6924 -3.7365,-0.6924 -2.608,0 -3.5884,0.3628 -5.3985,1.9981 l -0.9685,0.875 v -1.4918 -1.4917 l -0.6281,0.2388 c -0.3455,0.1314 -1.5783,0.2388 -2.7396,0.2388 h -2.1113 l 0.7192,0.7508 0.7192,0.7507 v 8.2939 8.2939 l -0.7192,0.7507 -0.7192,0.7507 h 3.6446 3.6447 l -0.7827,-0.8075 z m 24.8242,0.2304 c -0.6214,-0.4972 -0.7434,-0.8023 -0.9057,-2.264 -0.1032,-0.9291 -0.1933,-5.2365 -0.2002,-9.5721 l -0.013,-7.883 -0.6734,0.3512 c -0.4253,0.2219 -1.4179,0.3519 -2.6938,0.3528 -1.1111,0 -2.0203,0.078 -2.0203,0.1718 0,0.094 0.3031,0.4864 0.6735,0.8728 l 0.6734,0.7026 0.074,7.392 c 0.041,4.0655 0.01,7.7469 -0.071,8.1806 -0.08,0.4338 -0.4262,1.1225 -0.7695,1.5305 l -0.6243,0.7419 h 3.6338 3.6339 l -0.7182,-0.5746 z m -68.775396,-21.4726 c 0.83012,-0.2472 1.10606,-0.2469 1.40518,0 0.53286,0.4423 0.72506,-0.1938 0.53739,-1.7786 l -0.14995,-1.2662 1.77067,-1.7179 c 2.101986,-2.0393 4.236576,-3.3357 6.913246,-4.1986 2.29059,-0.7385 5.687,-0.9572 5.55818,-0.3579 -0.20611,0.9586 2.51423,1.0617 3.99227,0.1513 1.3455,-0.8287 1.97927,-0.7746 4.56546,0.3899 2.61359,1.1768 3.72282,1.3376 3.83441,0.5558 0.0405,-0.2845 -0.18645,-0.8354 -0.50455,-1.2245 -0.31809,-0.3889 -0.71442,-1.1773 -0.88072,-1.7519 -0.90184,-3.1162 -6.26103,-6.0401 -11.66737,-6.3657 -1.98849,-0.1198 -2.40639,-0.2369 -4.27429,-1.1976 -2.94717,-1.5158 -3.57984,-1.4352 -2.21512,0.282 0.40404,0.5084 0.73463,1.0616 0.73463,1.2293 0,0.1677 -0.71935,0.7736 -1.59857,1.3464 -3.35562,2.1863 -6.201556,6.0715 -7.979046,10.8929 -0.44688,1.2122 -1.16004,2.6448 -1.58471,3.1835 -0.96587,1.2252 -1.32672,1.9142 -1.32672,2.533 0,0.474 0.0181,0.4749 0.91829,0.042 0.50509,-0.2428 1.38318,-0.5798 1.95132,-0.7489 z m 66.285896,-0.5761 c 1.9742,-0.8249 2.187,-3.326 0.4027,-4.7321 -0.2082,-0.1641 -0.8384,-0.3019 -1.4005,-0.3061 -2.819,-0.021 -3.7763,3.7283 -1.2673,4.9645 1.0083,0.4968 1.2349,0.5041 2.2651,0.074 z"
       style="display:inline;fill:#00539f;fill-opacity:1;filter:url(#filter4793)" />
  </g>
</svg>
