<?xml version="1.0" encoding="UTF-8" standalone="no"?>
<svg
   xmlns:dc="http://purl.org/dc/elements/1.1/"
   xmlns:cc="http://creativecommons.org/ns#"
   xmlns:rdf="http://www.w3.org/1999/02/22-rdf-syntax-ns#"
   xmlns:svg="http://www.w3.org/2000/svg"
   xmlns="http://www.w3.org/2000/svg"
   id="svg717"
   version="1.1"
   viewBox="0 0 57.150002 21.964434"
   height="21.964434mm"
   width="57.150002mm">
  <defs
     id="defs711">
    <filter
       id="filter4781"
       style="color-interpolation-filters:sRGB">
      <feFlood
         id="feFlood4783"
         result="flood"
         flood-color="rgb(0,0,0)"
         flood-opacity="0.623529" />
      <feComposite
         id="feComposite4785"
         result="composite1"
         operator="in"
         in2="SourceGraphic"
         in="flood" />
      <feGaussianBlur
         id="feGaussianBlur4787"
         result="blur"
         stdDeviation="2"
         in="composite1" />
      <feOffset
         id="feOffset4789"
         result="offset"
         dy="2"
         dx="1.38778e-16" />
      <feComposite
         id="feComposite4791"
         result="composite2"
         operator="over"
         in2="offset"
         in="SourceGraphic" />
    </filter>
  </defs>
  <metadata
     id="metadata714">
    <rdf:RDF>
      <cc:Work
         rdf:about="">
        <dc:format>image/svg+xml</dc:format>
        <dc:type
           rdf:resource="http://purl.org/dc/dcmitype/StillImage" />
        <dc:title></dc:title>
      </cc:Work>
    </rdf:RDF>
  </metadata>
  <g
     transform="translate(-15.270237,-177.91659)"
     id="layer1">
    <g
       style="display:inline;filter:url(#filter4781)"
       id="g4196"
       transform="matrix(0.13854254,0,0,0.13854254,6.2794395,127.54634)">
      <path
         style="fill:#000000"
         d="m 127.72855,497.89966 c -2.01518,-0.24808 -5.86473,-1.0562 -7.8,-1.63741 -9.27641,-2.78596 -16.31411,-9.46587 -19.19781,-18.22183 -1.264611,-3.8398 -1.542355,-6.42552 -1.440083,-13.40676 l 0.0879,-6 h 7.649993 7.65 l 0.16195,7.2 c 0.14583,6.48347 0.22993,7.39158 0.84507,9.12512 1.58631,4.47036 4.66122,7.43456 9.60711,9.26118 2.98826,1.10362 8.03369,1.27504 11.28388,0.38336 2.57086,-0.7053 4.89221,-1.88076 7.05199,-3.57089 4.00847,-3.13682 5.56356,-6.6743 6.28678,-14.30095 0.19922,-2.10085 0.31281,-18.07929 0.31297,-44.02282 l 2.5e-4,-40.725 h 7.8 7.8 v 45.11686 c 0,38.99454 -0.0615,45.44111 -0.45327,47.50634 -0.92237,4.86233 -3.17959,9.03324 -7.11819,13.1531 -4.84339,5.06626 -9.91802,7.89834 -17.17854,9.58708 -2.05315,0.47755 -10.96368,0.8464 -13.35,0.55262 z m 63.50539,-3.61061 c -0.11296,-0.11296 -0.20539,-25.43033 -0.20539,-56.26082 V 381.9728 l 7.125,0.0804 7.125,0.0804 v 56.1 56.1 l -6.91961,0.0804 c -3.80578,0.0442 -7.01203,-0.012 -7.125,-0.125 z m 39.09461,-56.05539 v -56.25 h 7.35 7.35 v 27.6 c 0,15.18 0.0941,27.6 0.2092,27.6 0.25199,0 2.13496,-1.83395 24.83391,-24.18734 9.73879,-9.59053 20.81189,-20.48636 24.60689,-24.21294 l 6.9,-6.7756 9.6,1.9e-4 9.6,1.9e-4 -6.9,6.76218 c -3.795,3.71921 -11.49,11.23754 -17.1,16.70741 -16.92653,16.50374 -22.65,22.20966 -22.65,22.58057 0,0.19423 0.57375,1.10718 1.275,2.02878 0.70125,0.9216 1.7475,2.36314 2.325,3.20342 0.5775,0.84029 1.67091,2.36374 2.42981,3.38546 0.75889,1.02173 3.47063,4.76018 6.02607,8.30768 5.31514,7.37854 21.63011,29.91854 23.46729,32.42129 0.67475,0.91922 2.10433,2.9067 3.17683,4.41664 1.0725,1.50993 2.029,2.7491 2.12555,2.7537 0.0966,0.005 1.05792,-1.57788 2.13637,-3.51663 2.89407,-5.20276 8.11256,-14.48608 20.61635,-36.675 2.18503,-3.8775 4.693,-8.3325 5.57328,-9.9 1.67108,-2.97571 5.64902,-10.04118 18.24157,-32.4 4.13532,-7.3425 8.98865,-15.9825 10.7852,-19.2 1.79654,-3.2175 3.3743,-5.96118 3.50612,-6.09707 0.13183,-0.13588 3.3836,5.26412 7.22615,12 3.84256,6.73589 7.9625,13.93457 9.15543,15.99707 1.19295,2.0625 7.39827,12.93 13.78962,24.15 6.39138,11.22 12.70496,22.29 14.03024,24.6 1.32525,2.31 2.74365,4.8075 3.15198,5.55 0.40833,0.7425 0.84147,1.485 0.96255,1.65 0.12108,0.165 0.6285,1.0425 1.12764,1.95 0.49914,0.9075 2.76159,4.89 5.02767,8.85 2.26608,3.96 4.35189,7.605 4.63518,8.1 4.97547,8.69443 8.10909,14.31682 8.10909,14.54944 0,0.18555 -8.91453,0.26522 -24.675,0.22053 l -24.67499,-0.07 -0.0811,-6.225 -0.0811,-6.225 h 13.64667 c 12.83723,0 13.63481,-0.0309 13.44662,-0.52136 -0.11004,-0.28674 -1.50348,-2.81799 -3.09654,-5.625 -1.59306,-2.807 -4.42007,-7.80364 -6.28223,-11.10364 -4.10259,-7.27032 -5.40711,-9.57164 -13.2642,-23.4 -3.37503,-5.94 -7.99848,-14.1075 -10.27431,-18.15 -2.27583,-4.0425 -4.45871,-7.85336 -4.85085,-8.46857 -0.39214,-0.61521 -0.71298,-1.18658 -0.71298,-1.26972 0,-0.0831 -0.54,-1.0334 -1.2,-2.11171 -0.66,-1.07831 -1.2,-2.00838 -1.2,-2.06683 0,-0.18045 -3.33142,-6.0181 -3.58257,-6.27774 -0.20551,-0.21245 -2.66478,3.90432 -5.88094,9.84457 -1.41078,2.60572 -5.05995,9.22895 -7.85126,14.25 -5.55016,9.98372 -17.73757,31.98146 -22.43821,40.5 -2.777,5.0325 -5.69199,10.2975 -6.47776,11.7 l -1.42866,2.55 13.0297,0.0781 13.0297,0.0782 v 6.29986 6.29985 l -26.80912,-0.009 c -26.24463,-0.009 -26.82032,-0.0216 -27.34153,-0.59753 -0.29283,-0.32357 -1.28998,-1.65971 -2.21589,-2.96918 -0.9259,-1.30947 -3.64096,-5.10722 -6.03346,-8.43945 -2.3925,-3.33222 -5.025,-7.02655 -5.85,-8.20961 -0.825,-1.18307 -2.05147,-2.88903 -2.72549,-3.79104 -1.19067,-1.5934 -5.15678,-7.13923 -9.12451,-12.75883 -1.0725,-1.51902 -2.61763,-3.68869 -3.43362,-4.82151 -5.0673,-7.03481 -8.31297,-11.57792 -9.33974,-13.07328 -0.64715,-0.94249 -1.29455,-1.71874 -1.43866,-1.725 -0.14411,-0.006 -4.43036,4.05487 -9.525,9.02473 l -9.26298,9.03611 v 19.16389 19.16389 h -7.35 -7.35 v -56.25 z"
         id="path4191" />
      <path
         style="fill:#1cf1f9;fill-opacity:1;fill-rule:evenodd;stroke:none;stroke-width:1px;stroke-linecap:butt;stroke-linejoin:miter;stroke-opacity:1"
         d="m 368.70568,461.92804 15.15229,-14.14213 -0.50508,46.46701 -14.14213,14.64722 z"
         id="path4193" />
    </g>
  </g>
</svg>
