<?xml version="1.0" encoding="UTF-8" standalone="no"?>
<!-- Created with Inkscape (http://www.inkscape.org/) -->

<svg
   xmlns:dc="http://purl.org/dc/elements/1.1/"
   xmlns:cc="http://creativecommons.org/ns#"
   xmlns:rdf="http://www.w3.org/1999/02/22-rdf-syntax-ns#"
   xmlns:svg="http://www.w3.org/2000/svg"
   xmlns="http://www.w3.org/2000/svg"
   xmlns:sodipodi="http://sodipodi.sourceforge.net/DTD/sodipodi-0.dtd"
   xmlns:inkscape="http://www.inkscape.org/namespaces/inkscape"
   width="27.159958mm"
   height="26.987621mm"
   viewBox="0 0 27.159958 26.987621"
   version="1.1"
   id="svg3003"
   inkscape:version="0.92.2 5c3e80d, 2017-08-06"
   sodipodi:docname="bath.svg">
  <defs
     id="defs2997" />
  <sodipodi:namedview
     id="base"
     pagecolor="#ffffff"
     bordercolor="#666666"
     borderopacity="1.0"
     inkscape:pageopacity="0.0"
     inkscape:pageshadow="2"
     inkscape:zoom="0.35"
     inkscape:cx="-494.38849"
     inkscape:cy="91.000808"
     inkscape:document-units="mm"
     inkscape:current-layer="layer1"
     showgrid="false"
     fit-margin-top="0"
     fit-margin-left="0"
     fit-margin-right="0"
     fit-margin-bottom="0"
     inkscape:window-width="1920"
     inkscape:window-height="1012"
     inkscape:window-x="0"
     inkscape:window-y="32"
     inkscape:window-maximized="1" />
  <metadata
     id="metadata3000">
    <rdf:RDF>
      <cc:Work
         rdf:about="">
        <dc:format>image/svg+xml</dc:format>
        <dc:type
           rdf:resource="http://purl.org/dc/dcmitype/StillImage" />
        <dc:title></dc:title>
      </cc:Work>
    </rdf:RDF>
  </metadata>
  <g
     inkscape:label="Layer 1"
     inkscape:groupmode="layer"
     id="layer1"
     transform="translate(-96.033144,-145.92301)">
    <path
       style="display:inline;fill:#01f7f7;fill-opacity:1;stroke-width:0.05356221"
       d="m 102.01531,172.86478 c -0.17511,-0.0708 -0.34216,-0.31884 -0.34216,-0.50815 0,-0.0942 0.14462,-0.52293 0.32139,-0.95274 0.17674,-0.42984 0.32136,-0.80555 0.32136,-0.83492 0,-0.0294 -0.12655,-0.0946 -0.2812,-0.14494 -1.68217,-0.54769 -3.343646,-2.0397 -4.162346,-3.73779 -0.475086,-0.98537 -0.690325,-1.86979 -0.73541,-3.02184 l -0.03196,-0.81682 h -0.292206 c -0.517208,0 -0.7908,-0.21979 -0.779285,-0.626 0.0039,-0.13891 0.05152,-0.23808 0.172146,-0.35878 l 0.166706,-0.16682 0.934622,-0.0177 0.934614,-0.0177 0.01614,-5.84727 0.01614,-5.84726 0.120491,-0.42852 c 0.504349,-1.79385 1.940158,-3.16511 3.706118,-3.53949 0.1922,-0.0407 0.59386,-0.0745 0.89255,-0.075 0.94096,-0.003 1.76429,0.2123 2.50312,0.65037 0.20243,0.12002 0.51329,0.25212 0.69077,0.29353 0.97687,0.22789 1.8928,1.08741 2.23049,2.09312 0.12473,0.37145 0.14481,0.79465 0.0479,1.00748 -0.13285,0.29154 -0.14806,0.2931 -2.85165,0.2931 h -2.49245 l -0.16484,-0.14729 c -0.21206,-0.18949 -0.25262,-0.46522 -0.13644,-0.92721 0.1715,-0.68196 0.66495,-1.41679 1.2228,-1.82088 l 0.20259,-0.14674 -0.28171,-0.0724 c -0.17221,-0.0443 -0.56271,-0.0713 -1.00478,-0.0696 -0.64741,0.003 -0.7679,0.0183 -1.15107,0.15124 -1.1575,0.40153 -1.986804,1.28267 -2.277687,2.41998 -0.10287,0.40228 -0.106362,0.60516 -0.106362,6.21877 v 5.80295 h 6.829189 6.82918 v -0.29631 c 0,-0.16298 0.0343,-0.3783 0.0761,-0.4785 0.14941,-0.35758 0.12592,-0.3548 2.86899,-0.33816 l 2.46231,0.0148 0.14746,0.14748 c 0.12946,0.12948 0.14991,0.19645 0.16772,0.54901 l 0.0204,0.40153 1.90899,0.003 c 1.33133,0.003 1.9657,0.0225 2.0964,0.067 0.26331,0.0898 0.41574,0.37899 0.34563,0.65577 -0.0683,0.26956 -0.27014,0.41076 -0.62998,0.44061 l -0.28882,0.0241 -0.0345,0.73051 c -0.0557,1.18126 -0.28556,2.11834 -0.75726,3.08724 -0.84672,1.73921 -2.32349,3.08454 -4.0876,3.72372 -0.19032,0.0689 -0.32647,0.14788 -0.31234,0.18105 0.56996,1.33985 0.69321,1.70122 0.6455,1.89268 -0.10229,0.41023 -0.62219,0.56361 -0.91562,0.27013 -0.0672,-0.0672 -0.28778,-0.52681 -0.49019,-1.02134 l -0.36806,-0.89916 -6.23475,-5e-5 h -6.23471 l -0.38108,0.92601 c -0.32147,0.78116 -0.4086,0.94486 -0.55692,1.04654 -0.18399,0.12607 -0.32446,0.14467 -0.51417,0.068 z m 14.25355,-3.30697 c 1.26873,-0.29205 2.20263,-0.79129 3.02824,-1.61888 1.16048,-1.16324 1.81914,-2.89234 1.81914,-4.77565 v -0.3157 h -1.1498 -1.14983 l -0.0151,2.12013 -0.0151,2.12016 -0.17491,0.15624 -0.17492,0.15626 H 115.987 c -1.85034,0 -2.4824,-0.0172 -2.58355,-0.0677 -0.0736,-0.0368 -0.17603,-0.15094 -0.22754,-0.25363 -0.0842,-0.1679 -0.0937,-0.39071 -0.0937,-2.20871 v -2.02198 h -7.41834 -7.418361 v 0.52224 c 0.0027,2.73928 1.511247,5.02161 3.920941,5.92802 0.34163,0.1285 1.23097,0.33075 1.62242,0.36898 0.11785,0.0114 2.86557,0.0167 6.10608,0.0114 5.75133,-0.009 5.90336,-0.0122 6.37392,-0.12044 z m 1.39261,-3.87144 v -0.56239 l -1.70059,-0.014 -1.7006,-0.014 v 0.59068 0.59071 l 1.7006,-0.014 1.70059,-0.014 z m 0.0151,-2.85218 -0.0151,-1.13821 -1.70059,-0.014 -1.7006,-0.014 v 1.15234 1.15234 h 1.71579 1.71582 z m -10.41001,-13.81905 c -0.0615,-0.19648 -0.33395,-0.56235 -0.53019,-0.71205 -0.62101,-0.47366 -1.61354,-0.46236 -2.18274,0.0249 -0.26694,0.2285 -0.52385,0.57603 -0.52385,0.70864 0,0.0942 0.08,0.0991 1.63727,0.0991 h 1.63724 z m -5.53405,11.34739 c -0.15539,-0.0861 -0.26948,-0.28003 -0.27117,-0.46087 -0.003,-0.27234 0.15394,-0.72277 0.29313,-0.8436 0.16566,-0.14385 0.50165,-0.16208 0.6917,-0.0376 0.21511,0.14094 0.26916,0.35163 0.1886,0.73517 -0.11917,0.56748 -0.50507,0.82704 -0.90226,0.60687 z m 3.52507,-0.0818 c -0.14742,-0.14742 -0.15655,-0.182 -0.15655,-0.5933 0,-0.41129 0.009,-0.44585 0.15655,-0.5933 0.29985,-0.29982 0.84455,-0.16012 0.9456,0.24255 0.0193,0.0772 0.0246,0.28773 0.0116,0.4678 -0.0206,0.28581 -0.0454,0.34677 -0.1946,0.48012 -0.24017,0.21457 -0.54568,0.21304 -0.76256,-0.004 z m 3.68446,0.0488 c -0.0754,-0.0593 -0.1737,-0.22198 -0.2185,-0.36152 -0.1493,-0.46525 -0.13295,-0.67173 0.0692,-0.87384 0.20691,-0.20691 0.51369,-0.21664 0.74314,-0.0236 0.22434,0.18878 0.36756,0.75001 0.25818,1.01177 -0.0414,0.0992 -0.13144,0.2196 -0.20002,0.26765 -0.17233,0.12067 -0.48501,0.11086 -0.65196,-0.0204 z M 102.3347,158.031 c -0.27043,-0.16489 -0.31678,-0.396 -0.18031,-0.89889 0.14666,-0.54039 0.20468,-0.65027 0.39545,-0.74893 0.30967,-0.16013 0.73816,0.0294 0.81044,0.35856 0.0314,0.14295 -0.14139,0.93845 -0.24654,1.13488 -0.0642,0.12004 -0.32475,0.25762 -0.48731,0.25736 -0.0677,0 -0.19902,-0.0464 -0.29173,-0.10298 z m 3.10796,0.0257 c -0.29049,-0.12565 -0.34163,-0.25678 -0.34163,-0.87596 0,-0.54157 0.004,-0.55829 0.15655,-0.71117 0.12568,-0.12568 0.2023,-0.15624 0.38833,-0.15486 0.24731,0.003 0.34335,0.0538 0.48866,0.26464 0.11851,0.17195 0.12906,1.00494 0.0156,1.22454 -0.12795,0.24741 -0.45212,0.36325 -0.70742,0.25281 z m 3.00601,0.0293 c -0.19376,-0.0838 -0.30149,-0.2586 -0.40497,-0.65699 -0.12441,-0.479 -0.12983,-0.70519 -0.0209,-0.87143 0.17931,-0.27363 0.64474,-0.31102 0.86725,-0.0696 0.12168,0.132 0.33528,0.83262 0.33528,1.09977 0,0.3451 -0.45537,0.63727 -0.77663,0.49829 z m -5.48209,-2.71177 c -0.22667,-0.19071 -0.24961,-0.37208 -0.11168,-0.88321 0.18368,-0.68072 0.45305,-0.90416 0.87667,-0.72715 0.13801,0.0576 0.21902,0.13909 0.27739,0.27877 0.0767,0.18348 0.074,0.23156 -0.038,0.68484 -0.14719,0.59571 -0.29716,0.78211 -0.62926,0.78211 -0.15103,0 -0.26175,-0.04 -0.37513,-0.13536 z m 2.5246,0.0978 c -0.0653,-0.0127 -0.17975,-0.0956 -0.25442,-0.18429 -0.12642,-0.15023 -0.13573,-0.19994 -0.13573,-0.72374 0,-0.5502 0.003,-0.56581 0.15655,-0.71898 0.21842,-0.21838 0.52226,-0.21851 0.76655,0 0.17087,0.15262 0.17534,0.16799 0.19326,0.66265 0.0217,0.59831 -0.0551,0.80643 -0.34156,0.92612 -0.10019,0.0419 -0.20103,0.0728 -0.22407,0.0688 -0.023,-0.004 -0.0953,-0.0177 -0.16058,-0.0303 z m 2.12577,-0.10975 c -0.12396,-0.11139 -0.1892,-0.24522 -0.26776,-0.54901 -0.0571,-0.22096 -0.10424,-0.47681 -0.10475,-0.56857 -0.003,-0.36676 0.41556,-0.62984 0.76682,-0.48307 0.21823,0.0912 0.27869,0.18854 0.41659,0.67074 0.14856,0.51951 0.13501,0.71374 -0.0636,0.91239 -0.22183,0.22183 -0.5124,0.22863 -0.74727,0.0175 z m -3.84114,-2.50214 c -0.1062,-0.0469 -0.20947,-0.15187 -0.26596,-0.27035 -0.0875,-0.18352 -0.0874,-0.21238 0.003,-0.55179 0.12258,-0.46874 0.2744,-0.62592 0.6046,-0.62592 0.21015,0 0.26691,0.0254 0.40714,0.18235 0.14853,0.16623 0.16041,0.20677 0.13441,0.45865 -0.069,0.66829 -0.43561,1.00399 -0.88146,0.80706 z m 3.2703,5e-5 c -0.19875,-0.0864 -0.29996,-0.26085 -0.3919,-0.67521 -0.0573,-0.25826 -0.0544,-0.3211 0.0214,-0.46776 0.0931,-0.18005 0.32846,-0.33192 0.5143,-0.33192 0.3361,0 0.57425,0.31575 0.62754,0.83209 0.0358,0.3466 -0.0596,0.53012 -0.33539,0.64534 -0.21804,0.0911 -0.22071,0.0911 -0.43598,-0.003 z m -1.60292,-0.0276 c -0.24424,-0.0987 -0.34216,-0.30853 -0.34216,-0.73326 0,-0.26768 0.0269,-0.43749 0.0829,-0.523 0.18486,-0.28213 0.64359,-0.30996 0.88439,-0.0537 0.10237,0.10898 0.13153,0.20741 0.14806,0.49988 0.0251,0.44592 -0.074,0.67503 -0.3406,0.78642 -0.20484,0.0856 -0.27043,0.0892 -0.43264,0.0235 z"
       id="path873"
       inkscape:connector-curvature="0" />
  </g>
</svg>
