<?xml version="1.0" encoding="UTF-8" standalone="no"?>
<!-- Created with Inkscape (http://www.inkscape.org/) -->

<svg
   xmlns:dc="http://purl.org/dc/elements/1.1/"
   xmlns:cc="http://creativecommons.org/ns#"
   xmlns:rdf="http://www.w3.org/1999/02/22-rdf-syntax-ns#"
   xmlns:svg="http://www.w3.org/2000/svg"
   xmlns="http://www.w3.org/2000/svg"
   xmlns:sodipodi="http://sodipodi.sourceforge.net/DTD/sodipodi-0.dtd"
   xmlns:inkscape="http://www.inkscape.org/namespaces/inkscape"
   width="41.466679mm"
   height="26.987471mm"
   viewBox="0 0 41.466679 26.987471"
   version="1.1"
   id="svg8"
   inkscape:version="0.92.2 5c3e80d, 2017-08-06"
   sodipodi:docname="drawing.svg">
  <defs
     id="defs2" />
  <sodipodi:namedview
     id="base"
     pagecolor="#ffffff"
     bordercolor="#666666"
     borderopacity="1.0"
     inkscape:pageopacity="0.0"
     inkscape:pageshadow="2"
     inkscape:zoom="2.4825053"
     inkscape:cx="96.709437"
     inkscape:cy="-7.5770574"
     inkscape:document-units="mm"
     inkscape:current-layer="layer1"
     showgrid="false"
     fit-margin-top="0"
     fit-margin-left="0"
     fit-margin-right="0"
     fit-margin-bottom="0"
     inkscape:window-width="1920"
     inkscape:window-height="1012"
     inkscape:window-x="0"
     inkscape:window-y="32"
     inkscape:window-maximized="1" />
  <metadata
     id="metadata5">
    <rdf:RDF>
      <cc:Work
         rdf:about="">
        <dc:format>image/svg+xml</dc:format>
        <dc:type
           rdf:resource="http://purl.org/dc/dcmitype/StillImage" />
        <dc:title></dc:title>
      </cc:Work>
    </rdf:RDF>
  </metadata>
  <g
     inkscape:label="Layer 1"
     inkscape:groupmode="layer"
     id="layer1"
     transform="translate(-85.77556,-109.77842)">
    <path
       style="display:inline;fill:#00ffff;fill-opacity:1;stroke-width:0.14910223"
       d="m 85.820973,131.0627 c 0.04494,-5.64399 0.04911,-5.71132 0.401142,-6.49034 0.45003,-0.99586 1.550104,-1.99892 2.670803,-2.4353 0.693046,-0.26988 1.242713,-0.3433 2.974834,-0.39738 l 2.1247,-0.0663 v -0.57404 -0.57401 l 1.279207,-0.043 1.279182,-0.0431 0.271965,-0.77338 c 1.115139,-3.17124 3.706384,-5.56834 7.159494,-6.62316 1.32426,-0.40454 3.88884,-0.47577 5.2079,-0.14467 2.14236,0.53774 4.08225,1.67603 5.50801,3.23202 0.86043,0.93898 1.8814,2.67507 2.24928,3.8246 l 0.17894,0.55915 h 1.25579 1.25582 v 0.59639 0.59643 h 1.72447 c 0.94848,0 1.84619,-0.0651 1.99496,-0.14476 0.14875,-0.0796 0.37918,-0.41645 0.51205,-0.74853 0.20659,-0.51633 0.24159,-1.35908 0.24159,-5.81932 v -5.21558 h 1.56557 1.56556 v 5.56426 c 0,6.22766 -0.0455,6.58638 -0.97385,7.67091 -0.34089,0.39825 -0.9443,0.82621 -1.67262,1.18631 -1.11066,0.54912 -1.18742,0.56462 -3.04853,0.61556 l -1.9092,0.0522 v 0.58142 0.58145 h -1.25582 -1.25579 l -0.17894,0.55914 c -0.36788,1.14953 -1.38885,2.88562 -2.24928,3.8246 -2.29052,2.49971 -5.90642,3.84035 -9.13841,3.38823 -4.33578,-0.60653 -7.598598,-3.34809 -8.939215,-7.51104 -0.07136,-0.22156 -0.276014,-0.26093 -1.35607,-0.26093 h -1.272063 v -0.5964 -0.59643 h -1.852335 c -1.780757,0 -1.870263,0.0151 -2.316438,0.39053 -0.902864,0.7597 -0.900697,0.74432 -0.900697,6.38622 v 5.15144 H 87.34927 85.77556 Z m 23.644837,0.56073 c 2.69994,-0.85291 4.91631,-3.03829 5.74159,-5.66129 0.4657,-1.48016 0.4657,-3.89991 0,-5.38006 -0.78988,-2.51056 -2.89935,-4.66556 -5.49478,-5.61346 -0.64553,-0.23574 -1.33885,-0.34038 -2.5662,-0.38724 -1.49704,-0.0571 -1.8171,-0.022 -2.91451,0.32015 -2.79649,0.8719 -4.839153,2.93359 -5.855868,5.91039 -0.391715,1.14692 -0.391715,3.77346 0,4.92038 0.710327,2.07973 2.069728,3.89371 3.706678,4.9462 2.06232,1.32596 4.99052,1.70074 7.38309,0.94493 z m -4.22941,-1.04291 c -1.99356,-0.43376 -4.0817,-1.99139 -5.01537,-3.74113 -1.143683,-2.14331 -1.143683,-4.99126 0,-7.13457 0.63675,-1.19332 2.06688,-2.53857 3.34296,-3.1446 2.95196,-1.40186 6.17583,-0.86357 8.48617,1.41695 1.52985,1.51011 2.23089,3.174 2.23089,5.29492 0,2.1271 -0.79976,3.99767 -2.31289,5.40962 -1.06383,0.99272 -2.23837,1.60777 -3.63598,1.904 -1.20592,0.25556 -1.9027,0.25439 -3.09578,-0.005 z m 2.95071,-0.53943 c 3.56809,-0.74181 6.02848,-4.21566 5.47881,-7.73562 -0.62783,-4.02069 -4.58531,-6.73452 -8.37952,-5.74625 -2.11232,0.55017 -3.77089,1.88725 -4.70093,3.78965 -0.54597,1.11681 -0.55438,1.16115 -0.55438,2.92322 0,1.7621 0.008,1.80642 0.55438,2.92323 1.40737,2.87882 4.56607,4.47685 7.60164,3.84577 z"
       id="path826"
       inkscape:connector-curvature="0" />
  </g>
</svg>
