<?xml version="1.0" encoding="UTF-8" standalone="no"?>
<svg
   xmlns:dc="http://purl.org/dc/elements/1.1/"
   xmlns:cc="http://creativecommons.org/ns#"
   xmlns:rdf="http://www.w3.org/1999/02/22-rdf-syntax-ns#"
   xmlns:svg="http://www.w3.org/2000/svg"
   xmlns="http://www.w3.org/2000/svg"
   id="svg789"
   version="1.1"
   viewBox="0 0 33.880906 24.340766"
   height="24.340767mm"
   width="33.880905mm">
  <defs
     id="defs783">
    <filter
       id="filter7901"
       style="color-interpolation-filters:sRGB">
      <feFlood
         id="feFlood7903"
         result="flood"
         flood-color="rgb(0,0,0)"
         flood-opacity="0.623529" />
      <feComposite
         id="feComposite7905"
         result="composite1"
         operator="in"
         in2="SourceGraphic"
         in="flood" />
      <feGaussianBlur
         id="feGaussianBlur7907"
         result="blur"
         stdDeviation="5.01283"
         in="composite1" />
      <feOffset
         id="feOffset7909"
         result="offset"
         dy="4"
         dx="1" />
      <feComposite
         id="feComposite7911"
         result="composite2"
         operator="over"
         in2="offset"
         in="SourceGraphic" />
    </filter>
    <filter
       id="filter7889"
       style="color-interpolation-filters:sRGB">
      <feFlood
         id="feFlood7891"
         result="flood"
         flood-color="rgb(0,0,0)"
         flood-opacity="0.623529" />
      <feComposite
         id="feComposite7893"
         result="composite1"
         operator="in"
         in2="SourceGraphic"
         in="flood" />
      <feGaussianBlur
         id="feGaussianBlur7895"
         result="blur"
         stdDeviation="5.01283"
         in="composite1" />
      <feOffset
         id="feOffset7897"
         result="offset"
         dy="4"
         dx="1" />
      <feComposite
         id="feComposite7899"
         result="composite2"
         operator="over"
         in2="offset"
         in="SourceGraphic" />
    </filter>
  </defs>
  <metadata
     id="metadata786">
    <rdf:RDF>
      <cc:Work
         rdf:about="">
        <dc:format>image/svg+xml</dc:format>
        <dc:type
           rdf:resource="http://purl.org/dc/dcmitype/StillImage" />
        <dc:title></dc:title>
      </cc:Work>
    </rdf:RDF>
  </metadata>
  <g
     transform="translate(-82.097175,-197.28066)"
     id="layer1">
    <path
       id="path4322-0"
       d="m 99.17716,218.59659 c 0,-1.82012 -0.0115,-2.76392 -0.0337,-2.76392 -0.0185,0 -0.0337,-0.037 -0.0337,-0.0823 0,-0.0452 0.0152,-0.0917 0.0337,-0.10311 0.0484,-0.0299 0.0416,-0.27758 -0.008,-0.30877 -0.0232,-0.0143 -0.0772,-0.0217 -0.12005,-0.0161 -0.0506,0.007 -0.10966,-0.0233 -0.16853,-0.0853 l -0.0906,-0.0954 -0.009,2.30045 -0.009,2.30047 h -0.40483 -0.40483 l 0.005,-2.41152 c 0.003,-1.32635 -0.003,-2.41914 -0.0122,-2.4284 -0.0244,-0.0243 -1.07221,-0.45198 -1.10762,-0.45198 -0.0169,0 -0.0301,0.95199 -0.0305,2.19932 -5.3e-4,1.22507 -0.0146,2.25906 -0.032,2.33418 -0.0648,0.28001 -0.352,0.36594 -0.69188,0.20706 -0.0927,-0.0433 -0.47682,-0.26223 -0.8536,-0.48638 -0.37712,-0.2244 -0.70667,-0.39934 -0.73312,-0.38918 -0.0397,0.0153 -0.048,0.15775 -0.048,0.82376 v 0.80536 h -0.40558 -0.40559 l 0.003,-0.79925 c 0.003,-0.68998 -0.004,-0.80455 -0.0495,-0.83796 -0.0439,-0.0321 -0.053,-0.12401 -0.0536,-0.54057 l -7.9e-4,-0.50189 -0.10882,-0.0505 -0.10882,-0.0506 v -0.47188 -0.47189 l 0.15858,-0.0506 0.15858,-0.0506 0.01,-0.57304 c 0.005,-0.31514 0.003,-0.98922 -0.007,-1.49794 l -0.0169,-0.92493 -1.02158,-0.41854 c -0.56186,-0.23021 -1.03152,-0.4086 -1.0437,-0.39643 -0.0551,0.0551 0.0758,0.16923 0.23094,0.20146 0.0478,0.0101 0.10337,0.0542 0.1235,0.0984 0.0263,0.0577 0.0741,0.0863 0.16993,0.10163 0.13184,0.0212 0.22971,0.0916 0.18675,0.13456 -0.0397,0.0397 -0.36291,0.0233 -0.56166,-0.0284 -0.32038,-0.0834 -0.44872,-0.069 -0.59974,0.0674 -0.0718,0.0649 -0.14691,0.11795 -0.16687,0.11795 -0.0225,0 -0.0281,0.0372 -0.0147,0.0983 0.0339,0.1542 -0.0116,0.31433 -0.12899,0.4541 -0.0992,0.11814 -0.12297,0.12907 -0.29263,0.13428 -0.11244,0.003 -0.21724,0.0285 -0.26791,0.064 -0.11473,0.0804 -0.19133,0.0731 -0.29209,-0.0277 -0.0638,-0.0637 -0.0806,-0.10726 -0.0652,-0.16851 0.0114,-0.0454 0.0143,-0.0826 0.006,-0.0826 -0.008,0 -0.11543,0.0453 -0.23897,0.10078 -0.17578,0.0789 -0.22097,0.11369 -0.20786,0.1601 0.0303,0.10742 -0.12392,0.49255 -0.21546,0.53793 -0.0457,0.0225 -0.13687,0.10411 -0.20266,0.18105 l -0.11962,0.13986 0.093,0.59457 c 0.0512,0.32705 0.12379,0.7842 0.1614,1.01592 0.18064,1.11292 0.20988,1.57324 0.11929,1.87828 -0.1024,0.34483 -0.36842,0.46453 -1.02768,0.46233 -0.33448,0 -0.47027,-0.0206 -0.99038,-0.14287 -0.33151,-0.0779 -0.61043,-0.14164 -0.61982,-0.14164 -0.009,0 0.0533,0.0655 0.13929,0.1456 0.11817,0.11005 0.15616,0.16974 0.15555,0.24437 -0.001,0.11467 -0.0512,0.34738 -0.0816,0.37778 -0.0787,0.0787 -1.21147,0.13925 -1.47192,0.0787 -0.16818,-0.0391 -0.48902,-0.28948 -0.584,-0.45575 -0.0433,-0.0759 -0.0968,-0.21587 -0.11874,-0.31117 -0.0462,-0.20032 -0.13835,-0.31549 -0.25241,-0.31549 -0.0959,0 -0.23763,-0.15716 -0.33079,-0.36679 -0.0537,-0.12084 -0.0618,-0.1914 -0.0446,-0.38762 0.0207,-0.23688 0.0238,-0.76586 0.005,-0.88595 -0.008,-0.0485 -0.0385,-0.0613 -0.14378,-0.0593 -0.10605,0.003 -0.17318,0.0338 -0.32042,0.15166 -0.15399,0.12332 -0.1965,0.18132 -0.24534,0.33454 -0.0784,0.24606 -0.19534,0.47352 -0.28515,0.55467 -0.0511,0.0462 -0.13547,0.0699 -0.28172,0.079 -0.18799,0.0119 -0.21659,0.005 -0.28751,-0.0712 -0.10871,-0.11636 -0.13312,-0.4069 -0.0586,-0.69773 0.0604,-0.23585 0.25207,-0.61286 0.52087,-1.02463 0.20501,-0.31403 0.2541,-0.52541 0.14351,-0.61809 l -0.0705,-0.0591 0.16875,-0.34661 c 0.21943,-0.45066 0.43074,-0.68143 0.62407,-0.68143 0.12228,0 0.15239,0.0212 0.38738,0.27175 0.14013,0.14949 0.29181,0.29012 0.33707,0.31258 0.0619,0.0307 0.0849,0.0726 0.0929,0.16923 0.0101,0.12239 0.0211,0.13332 0.23486,0.23336 0.18168,0.085 0.26903,0.10525 0.46019,0.10676 l 0.23594,0.003 0.16264,-0.2359 c 0.0894,-0.12972 0.17152,-0.27384 0.18238,-0.3202 0.0109,-0.0464 0.0571,-0.12448 0.10269,-0.17359 0.11862,-0.12766 0.0644,-0.20407 -0.22261,-0.31374 -0.1282,-0.049 -0.44315,-0.21074 -0.69991,-0.35944 -0.48396,-0.28025 -0.54729,-0.33454 -1.10723,-0.94946 -0.31661,-0.34769 -0.35687,-0.44352 -0.44128,-1.0505 -0.0489,-0.35197 -0.0684,-0.42286 -0.11597,-0.42286 -0.0611,0 -0.10019,-0.17679 -0.0999,-0.4513 0,-0.0762 -0.0254,-0.2097 -0.0565,-0.2967 -0.0564,-0.15748 -0.0563,-0.15864 0.0311,-0.28649 0.10844,-0.15864 0.18109,-0.32046 0.22806,-0.50803 0.0409,-0.16322 0.25442,-0.44103 0.54792,-0.71281 0.23229,-0.21511 0.29755,-0.32742 0.33148,-0.57052 0.0194,-0.13933 0.071,-0.24964 0.22843,-0.48877 0.29537,-0.44865 0.43926,-0.78036 0.4752,-1.09548 0.0343,-0.30093 0.15602,-0.64989 0.29921,-0.85801 0.18027,-0.26202 0.93375,-0.92359 1.21576,-1.06744 0.0687,-0.0351 0.31346,-0.12038 0.54397,-0.18965 0.62195,-0.18688 1.01265,-0.37881 1.26568,-0.62177 0.18537,-0.17802 0.22498,-0.20103 0.34583,-0.20103 0.0751,0 0.21347,0.0303 0.30753,0.0674 0.0941,0.037 0.17788,0.0674 0.18626,0.0674 0.008,0 0.0778,-0.12449 0.15431,-0.27662 0.30953,-0.61564 0.49296,-0.83667 0.8475,-1.02132 l 0.19374,-0.10089 0.001,-0.96062 c 5.3e-4,-0.52835 0.004,-1.66595 0.008,-2.52799 0.008,-1.54231 0.009,-1.56731 0.075,-1.56731 0.0667,-3e-5 0.0675,0.0254 0.076,2.48581 0.006,1.64936 0.0201,2.48587 0.0428,2.48587 0.0228,0 0.0311,-0.82526 0.0251,-2.48716 l -0.009,-2.48717 h 0.0927 0.0927 v 2.45489 2.45488 l 0.0927,-0.0201 c 0.25554,-0.0555 0.85636,0.23043 1.20619,0.57402 0.29542,0.29011 0.41949,0.63476 0.42346,1.17625 0.002,0.21752 -0.0143,0.31885 -0.0697,0.44405 -0.0835,0.18865 -0.19173,0.31473 -0.27034,0.31473 -0.0304,0 -0.14532,0.11266 -0.25534,0.25034 -0.11003,0.13772 -0.25693,0.28282 -0.32646,0.32237 -0.11766,0.067 -0.12643,0.0829 -0.12691,0.22998 -8e-4,0.2349 -0.0209,0.25074 -0.23226,0.18312 l -0.17933,-0.0573 -0.0733,0.0919 c -0.0403,0.0506 -0.0886,0.0919 -0.10729,0.0919 -0.0498,0 -0.0221,0.57182 0.0552,1.13896 0.0361,0.26492 0.0656,0.60745 0.0656,0.7612 0,0.33287 0.0592,0.66151 0.11913,0.66151 0.0765,0 0.24773,0.2308 0.26824,0.36166 0.011,0.0699 0.0271,0.17203 0.036,0.22696 0.009,0.0554 0.1418,0.2657 0.29816,0.47189 0.15518,0.20463 0.3163,0.44029 0.35805,0.52371 0.0418,0.0834 0.1817,0.25273 0.31098,0.37624 0.12929,0.12351 0.25252,0.25956 0.27384,0.30231 0.0264,0.053 0.11759,0.10684 0.28644,0.16918 0.13623,0.0503 0.28305,0.12464 0.32626,0.16526 0.11138,0.10459 0.18375,0.27344 0.18203,0.42463 -0.002,0.17666 -0.10446,0.46572 -0.16705,0.47132 -0.0278,0.003 -0.0697,0.006 -0.0932,0.008 -0.0511,0.005 -0.17616,0.20093 -0.17633,0.27678 0,0.0359 0.0868,0.0878 0.2611,0.15582 l 0.26122,0.10202 0.0169,-4.40283 c 0.0189,-4.94757 0.0169,-5.16122 -0.0503,-5.16122 -0.10655,0 -0.15198,-0.10234 -0.15198,-0.34237 0,-0.23178 0.002,-0.23726 0.10112,-0.27464 l 0.10112,-0.0382 v -0.54877 c 0,-0.50597 -0.005,-0.54875 -0.0607,-0.54875 -0.10833,0 -0.14157,-0.0732 -0.14157,-0.31168 0,-0.22087 0.004,-0.23323 0.10064,-0.28818 l 0.10064,-0.0574 0.009,-1.56265 0.009,-1.56269 0.38763,-0.003 0.38762,-0.003 0.009,1.56567 0.009,1.56568 0.10079,0.038 c 0.0994,0.0375 0.10079,0.0415 0.10079,0.28704 0,0.25713 -0.0312,0.32989 -0.14156,0.32989 -0.0334,0 -0.0607,0.0228 -0.0607,0.0506 0,0.0665 0.01,0.0651 0.23173,-0.0345 0.17976,-0.0807 0.1896,-0.0914 0.1896,-0.20712 0,-0.11724 0.007,-0.12446 0.17849,-0.18304 0.17538,-0.06 0.17967,-0.0598 0.24606,0.007 l 0.0676,0.0676 0.37751,-0.16833 c 0.20764,-0.0926 0.5747,-0.25905 0.8157,-0.36996 0.43038,-0.19807 0.43819,-0.20363 0.43819,-0.3111 0,-0.0898 0.0181,-0.11695 0.10111,-0.15134 0.0895,-0.0371 0.10984,-0.0338 0.1768,0.0284 l 0.0757,0.0703 0.28691,-0.12459 c 0.34367,-0.14925 0.5565,-0.19399 0.75168,-0.15795 0.26986,0.0498 0.37686,0.22949 0.37722,0.63346 0,0.18031 0.009,0.21066 0.0609,0.21066 0.11034,0 0.14156,0.0728 0.14156,0.32988 0,0.2457 -0.001,0.24948 -0.10111,0.28716 l -0.10113,0.0382 -0.002,0.58245 c -0.003,0.71321 -0.003,0.65405 0,2.47004 0.002,1.40494 0.005,1.48307 0.0626,1.48307 0.11034,0 0.14156,0.0728 0.14156,0.32989 0,0.24569 -0.001,0.24947 -0.10111,0.28715 l -0.10112,0.0382 -0.002,1.324 c -10e-4,0.72821 -0.002,1.43777 -0.002,1.57681 0,0.13904 7.9e-4,1.38242 0.002,2.76307 l 0.002,2.51026 0.0954,0.0493 c 0.0525,0.0271 0.14379,0.048 0.20294,0.0463 0.0604,-0.003 0.13312,0.0225 0.16583,0.0551 0.0321,0.032 0.10849,0.0877 0.16985,0.12385 0.13629,0.0803 0.20864,0.24247 0.20864,0.46765 0,0.0933 0.0152,0.16963 0.0337,0.16963 0.0185,0 0.0337,0.037 0.0337,0.0823 0,0.0453 -0.0152,0.0916 -0.0337,0.1031 -0.022,0.0135 -0.0337,0.97785 -0.0337,2.78279 v 2.76193 H 99.37884 99.1766 v -2.76392 z m 0.20224,-0.0505 c 0,-2.75831 -5.3e-4,-2.78078 -0.0674,-2.78078 -0.0882,0 -0.0869,-0.0545 0.002,-0.0777 0.0607,-0.0159 0.068,-0.0403 0.059,-0.19759 -0.01,-0.16766 -0.018,-0.18333 -0.12825,-0.23741 -0.0671,-0.0329 -0.15672,-0.0503 -0.20781,-0.0402 -0.066,0.013 -0.0928,0.003 -0.10111,-0.0384 -0.006,-0.0315 -0.0853,-0.0842 -0.17983,-0.1202 -0.25107,-0.0955 -0.2865,-0.10467 -0.2865,-0.0741 0,0.0154 0.0986,0.0632 0.21909,0.10642 0.1205,0.0432 0.21909,0.0983 0.21909,0.1225 0,0.0578 0.1033,0.0961 0.14548,0.054 0.0216,-0.0217 0.0692,-0.0145 0.13762,0.0204 0.13117,0.0672 0.15393,0.10189 0.15457,0.23561 5.3e-4,0.0857 -0.0147,0.10938 -0.0753,0.11798 -0.0556,0.008 -0.0758,0.0333 -0.0758,0.095 0,0.0617 0.0203,0.0872 0.0758,0.095 l 0.0758,0.0108 v 2.74471 c 0,1.50961 0.008,2.74474 0.0168,2.74474 0.009,0 0.0169,-1.25135 0.0169,-2.78077 z m -5.54315,0.53086 c -0.0216,-0.73637 -0.0287,-0.80423 -0.0884,-0.84675 -0.0589,-0.042 -0.0648,-0.0912 -0.0648,-0.53261 v -0.48635 l -0.11797,-0.0493 -0.11798,-0.0493 v -0.39992 c 0,-0.46714 -0.009,-0.45225 0.31187,-0.52363 l 0.0928,-0.0206 -0.009,-6.56368 -0.009,-6.56365 -0.0843,-0.0116 c -0.13595,-0.0188 -0.16853,-0.0687 -0.16853,-0.258 0,-0.1893 0.0326,-0.23918 0.16853,-0.25799 l 0.0843,-0.0116 0.009,-0.59743 0.009,-0.59748 -0.0935,-0.0222 c -0.15104,-0.0361 -0.17773,-0.0765 -0.17773,-0.26879 0,-0.14557 0.0129,-0.18698 0.0674,-0.21614 0.0371,-0.0198 0.0674,-0.0274 0.0674,-0.0169 0,0.0106 0.0303,0.003 0.0674,-0.0169 0.0659,-0.0353 0.0674,-0.0706 0.0674,-1.58539 0,-1.01041 -0.0117,-1.54932 -0.0337,-1.54932 -0.022,0 -0.0337,0.53933 -0.0337,1.55051 v 1.55049 h -0.0775 c -0.12249,0 -0.15846,0.0649 -0.15791,0.28482 5.3e-4,0.23731 0.0181,0.27467 0.14308,0.30602 l 0.0924,0.0233 v 0.55354 c 0,0.49781 -0.006,0.55541 -0.059,0.57179 -0.14469,0.0447 -0.16006,0.0701 -0.17022,0.28104 -0.0112,0.23241 0.0245,0.30533 0.14906,0.30533 h 0.0801 v 6.53505 6.53505 l -0.14698,0.037 c -0.0808,0.0204 -0.16352,0.0569 -0.18376,0.0813 -0.0215,0.0259 -0.039,0.21791 -0.0422,0.46185 -0.005,0.36722 0.002,0.42289 0.0554,0.46197 0.0334,0.0243 0.0806,0.0444 0.1049,0.0444 0.0343,0 0.0441,0.10808 0.0441,0.48633 0,0.47858 0.001,0.48734 0.0843,0.55256 l 0.0843,0.0663 v 0.7788 c 0,0.55338 0.0109,0.77885 0.0378,0.77885 0.0276,0 0.0315,-0.21714 0.0143,-0.80055 z m 4.32138,-6.01658 -0.009,-6.6149 -0.13483,-0.0169 -0.13482,-0.0169 -0.0103,-0.17968 c -0.0123,-0.21466 0.0284,-0.27535 0.18441,-0.27535 h 0.1153 l -0.007,-1.77803 c -0.004,-0.9779 -0.0139,-2.04642 -0.0221,-2.3745 l -0.0149,-0.59645 -0.12262,-0.0103 c -0.1207,-0.0101 -0.12278,-0.013 -0.13289,-0.17034 -0.0127,-0.19722 -0.074,-0.21339 -0.074,-0.0196 0,0.16917 0.0745,0.26389 0.20746,0.26389 h 0.0959 v 2.32577 2.32572 h -0.0944 c -0.14079,0 -0.17527,0.0575 -0.17527,0.29207 0,0.22439 0.0403,0.28096 0.20002,0.28096 h 0.0696 v 6.58958 c 0,4.38155 0.0113,6.58961 0.0338,6.58961 0.0225,0 0.031,-2.21078 0.0253,-6.61488 z m -1.8755,5.43513 c 0.0128,-0.0463 0.0248,-1.02481 0.0266,-2.17443 l 0.003,-2.09015 -0.49717,-0.20162 c -0.31845,-0.12911 -0.54564,-0.20169 -0.632,-0.20185 -0.10443,0 -0.14183,-0.0161 -0.16589,-0.071 -0.0342,-0.0779 -0.29828,-0.19209 -0.34439,-0.14889 -0.0429,0.0402 -0.1807,-0.023 -0.1807,-0.0827 0,-0.0284 -0.0147,-0.0516 -0.0326,-0.0516 -0.0417,0 -0.0542,0.50591 -0.0422,1.71059 0.009,0.92969 0.011,0.95221 0.0775,0.95221 0.0374,0 0.11282,0.023 0.16752,0.0514 l 0.0994,0.0514 v 0.46694 0.46693 l -0.10111,0.0419 c -0.0972,0.0403 -0.10112,0.05 -0.10112,0.25434 v 0.21249 l 0.58143,0.35261 c 0.83922,0.50895 0.94291,0.56449 1.03514,0.55459 0.0558,-0.006 0.0906,-0.0365 0.10618,-0.0932 z m 0.17931,0.0445 c 0.0119,-0.0311 0.0212,-1.6958 0.0206,-3.69928 -0.001,-3.20143 -0.007,-3.6472 -0.0518,-3.68008 -0.0659,-0.0487 -0.0649,-0.21376 0.002,-0.30901 0.032,-0.0457 0.0379,-0.0749 0.0151,-0.0749 -0.0481,0 -0.13502,0.20754 -0.13502,0.32229 0,0.0599 0.0216,0.0941 0.0669,0.106 0.0662,0.0175 0.0669,0.0547 0.0675,3.595 5.3e-4,2.11724 -0.0122,3.62222 -0.0309,3.68704 -0.0321,0.11163 0.006,0.15595 0.0457,0.0529 z m 1.49706,-3.73499 c -0.0325,-0.0325 -1.15763,-0.48353 -1.17153,-0.46961 -0.0239,0.0238 -0.003,0.0335 0.55319,0.26209 0.47556,0.19529 0.67203,0.26123 0.61834,0.20752 z m -0.0199,-4.35139 0.008,-3.90703 -0.10111,-0.0506 c -0.0958,-0.0479 -0.10166,-0.0628 -0.11116,-0.28112 -0.0106,-0.24413 0.0224,-0.32559 0.13214,-0.32559 0.0608,0 0.0635,-0.0556 0.0689,-1.43251 0.0112,-2.85858 0.007,-3.11788 -0.0538,-3.11788 -0.0953,0 -0.15409,-0.10252 -0.15409,-0.26886 0,-0.14836 -0.006,-0.16135 -0.0699,-0.14471 -0.0529,0.0138 -0.0653,0.0367 -0.0509,0.0941 0.0329,0.13094 -0.17618,0.23138 -0.28208,0.13554 -0.0571,-0.0517 -0.11325,-0.0323 -0.88861,0.30705 -0.80716,0.35327 -0.8272,0.36439 -0.81007,0.45008 0.0217,0.1087 -0.0268,0.15185 -0.23242,0.20686 -0.13808,0.0369 -0.16496,0.0351 -0.22016,-0.0148 -0.0595,-0.0539 -0.0736,-0.0505 -0.26273,0.0619 -0.22642,0.13459 -0.36735,0.28286 -0.31683,0.3334 0.018,0.0183 0.0327,0.14475 0.0327,0.2817 0,0.24569 -0.001,0.24948 -0.10112,0.28713 l -0.10112,0.0382 v 4.94414 4.94416 l 0.0957,0.0334 c 0.0526,0.0182 0.13367,0.0262 0.18007,0.0175 0.0487,-0.009 0.10525,0.005 0.13387,0.0334 0.0435,0.0436 0.13556,0.008 0.76371,-0.29004 l 0.7142,-0.33954 v -0.60026 c 0,-0.51112 -0.008,-0.60028 -0.0506,-0.60028 -0.12254,0 -0.0251,-0.39537 0.11609,-0.47088 0.0833,-0.0446 0.25753,-0.0446 0.34081,0 0.14148,0.0757 0.23859,0.47088 0.11571,0.47088 -0.0447,0 -0.0499,0.16272 -0.0421,1.33789 l 0.009,1.33786 0.55616,0.22435 c 0.30588,0.12337 0.55999,0.22156 0.56469,0.21814 0.005,-0.003 0.0123,-1.7644 0.0168,-3.91326 z m -1.66037,3.66193 c -0.12503,-0.0733 -0.87614,-0.36621 -0.87614,-0.34168 0,0.0317 0.80061,0.37071 0.87636,0.37113 0.0448,0 0.0448,-0.003 0,-0.0295 z m 0.0339,-0.84455 c 0,-0.241 -0.007,-0.4382 -0.0152,-0.4382 -0.008,0 -0.22651,0.10443 -0.48475,0.23201 -0.26999,0.13341 -0.46044,0.24668 -0.44815,0.26655 0.0225,0.0365 0.83381,0.37327 0.906,0.37615 0.0316,0.003 0.0421,-0.10755 0.0421,-0.43651 z m -6.76274,0.11528 0.15558,-0.0869 -0.1092,-0.13361 c -0.10216,-0.12499 -0.11788,-0.13232 -0.24402,-0.11356 -0.0741,0.0111 -0.14421,0.0306 -0.15568,0.0436 -0.0267,0.0301 0.12756,0.37748 0.16763,0.37748 0.0166,0 0.10013,-0.0391 0.18569,-0.087 z m 6.08686,-0.49135 c 0.3532,-0.16976 0.64217,-0.3206 0.64217,-0.33518 0,-0.0305 -0.20865,0.0622 -0.81855,0.36349 -0.237,0.1171 -0.44467,0.21293 -0.46147,0.21293 -0.0168,0 -0.0399,0.0151 -0.0514,0.0337 -0.0421,0.0682 0.0606,0.0272 0.68923,-0.27495 z m -2.02064,0.14676 c 0,-0.0148 -0.12514,-0.0781 -0.27807,-0.14041 -0.15295,-0.0624 -0.32738,-0.13378 -0.38763,-0.15878 -0.0602,-0.0249 -0.10954,-0.033 -0.10954,-0.0177 0,0.0233 0.67575,0.33028 0.74997,0.34057 0.0139,0.003 0.0253,-0.008 0.0253,-0.0235 z m -4.30453,-0.26371 c 0.032,-0.032 -0.0753,-0.22 -0.11244,-0.19709 -0.0178,0.0111 -0.0323,0.0646 -0.0323,0.11909 0,0.0736 0.0159,0.0991 0.0618,0.0991 0.034,0 0.0713,-0.01 0.0829,-0.0212 z m 3.09054,-0.24011 c -7.9e-4,-0.0361 -0.77324,-0.34139 -0.791,-0.31266 -0.008,0.013 0.15531,0.0931 0.36314,0.17767 0.40941,0.16669 0.4287,0.17277 0.42786,0.13499 z m -1.59803,-0.16444 c 0.1501,-0.0377 0.23924,-0.0812 0.28455,-0.1388 0.0827,-0.10509 0.0543,-0.156 -0.0729,-0.13057 -0.0732,0.0145 -0.11261,0.003 -0.15602,-0.0491 -0.032,-0.0378 -0.10426,-0.0908 -0.16069,-0.11785 -0.13544,-0.0649 -0.20876,-0.19611 -0.23494,-0.42055 -0.0118,-0.101 -0.0382,-0.2181 -0.0587,-0.26017 -0.0277,-0.0569 -0.027,-0.0868 0.003,-0.11628 0.0269,-0.0269 0.0398,-0.19913 0.0398,-0.53351 v -0.49374 l -0.14015,-0.0632 c -0.0771,-0.0348 -0.19776,-0.10493 -0.26818,-0.15594 -0.0704,-0.051 -0.1361,-0.0797 -0.14594,-0.0638 -0.0506,0.0819 -0.32209,1.58017 -0.32209,1.77771 0,0.0575 0.0822,0.13903 0.32864,0.32599 0.18075,0.13708 0.39453,0.30448 0.47507,0.372 0.0805,0.0675 0.16085,0.12274 0.17846,0.12274 0.0176,0 0.13037,-0.0246 0.25058,-0.0549 z m 1.76593,-0.33493 c 7.9e-4,-0.0198 -0.06,-0.0703 -0.13467,-0.11229 -0.16299,-0.0916 -0.53826,-0.43254 -0.53826,-0.48901 0,-0.0284 -0.0651,-0.0359 -0.22295,-0.0259 -0.24395,0.0156 -0.28121,-0.007 -0.28213,-0.16951 -8e-4,-0.13891 -0.0666,-0.25411 -0.16955,-0.29673 -0.0511,-0.0212 -0.14961,-0.0904 -0.21896,-0.15396 -0.0693,-0.0635 -0.13175,-0.1155 -0.1387,-0.1155 -0.0296,0 -0.01,0.40244 0.0211,0.42133 0.0185,0.0116 0.0337,0.057 0.0337,0.10112 0,0.0442 -0.0152,0.0897 -0.0337,0.10112 -0.044,0.0272 -0.0432,0.17206 10e-4,0.25533 0.0266,0.0497 0.0561,0.0602 0.12262,0.0435 0.0647,-0.0164 0.10173,-0.004 0.1419,0.0453 0.0733,0.0907 0.31459,0.18192 0.37693,0.14247 0.0852,-0.0539 0.36482,-0.0347 0.50033,0.0344 0.12707,0.0648 0.30625,0.24529 0.30625,0.30847 0,0.018 0.0341,0.0451 0.0758,0.0607 0.0599,0.0225 0.0845,0.0132 0.11678,-0.0432 0.0225,-0.0394 0.0415,-0.0879 0.0421,-0.10766 z m -1.42588,-0.0355 c -0.0526,-0.0285 -0.10527,-0.0423 -0.117,-0.0305 -0.03,0.03 0.0646,0.0842 0.14526,0.0832 0.0556,0 0.0506,-0.0101 -0.0283,-0.0527 z m -0.40906,-0.24713 c -0.0283,-0.0547 -0.0514,-0.1766 -0.0514,-0.27085 0,-0.0973 -0.0224,-0.2055 -0.0518,-0.25037 -0.0466,-0.0711 -0.0466,-0.0811 0,-0.0989 0.0424,-0.0164 0.0518,-0.0899 0.0518,-0.40655 0,-0.22146 -0.0144,-0.39561 -0.0337,-0.40752 -0.0217,-0.0132 -0.0337,0.11695 -0.0337,0.3668 0,0.22203 -0.0144,0.39653 -0.0337,0.40843 -0.0185,0.0116 -0.0337,0.057 -0.0337,0.10113 0,0.0442 0.0152,0.0897 0.0337,0.10112 0.0185,0.0116 0.0337,0.0887 0.0337,0.17161 0,0.16502 0.0765,0.38455 0.13397,0.38455 0.0225,0 0.0167,-0.0378 -0.0151,-0.0994 z m 4.05324,-10.34071 c 0.20744,-0.0913 0.21119,-0.0953 0.1921,-0.20365 -0.0181,-0.10276 -0.0104,-0.1144 0.10864,-0.16494 0.0705,-0.0299 0.10968,-0.0609 0.0872,-0.0688 -0.0225,-0.008 -0.0832,0.006 -0.13483,0.0307 -0.0744,0.0358 -0.0943,0.0687 -0.0957,0.1587 -0.002,0.10501 -0.0181,0.12189 -0.2191,0.22524 -0.2652,0.13639 -0.22781,0.15012 0.0617,0.0228 z m 1.4648,-0.66944 c 0.46839,-0.21503 0.85851,-0.39759 0.86694,-0.40577 0.008,-0.008 -0.001,-0.0583 -0.0211,-0.11136 -0.0319,-0.0845 -0.0275,-0.10113 0.0352,-0.13309 0.0691,-0.0353 0.0687,-0.0363 -0.0126,-0.0286 -0.0736,0.007 -0.0843,0.0241 -0.0843,0.13499 v 0.12702 l -0.80813,0.371 c -0.71912,0.33018 -0.9267,0.43672 -0.85075,0.43672 0.0127,0 0.4063,-0.17592 0.87469,-0.39094 z m 1.4283,-0.64239 c 0.14628,-0.0678 0.24955,-0.12887 0.22948,-0.13575 -0.02,-0.007 -0.16415,0.0474 -0.3202,0.1207 -0.15606,0.0733 -0.25932,0.13433 -0.2295,0.13573 0.0298,0.003 0.17393,-0.0529 0.32022,-0.12068 z m -9.18868,20.49479 c -0.20323,-0.0359 -0.23391,-0.0524 -0.28405,-0.15288 -0.0814,-0.16311 -0.0681,-0.28294 0.0397,-0.35875 0.20985,-0.14756 0.32653,-0.18743 0.53087,-0.1814 0.11123,0.003 0.22057,-0.006 0.24298,-0.0204 0.0232,-0.0151 0.0505,-0.14944 0.0634,-0.31173 0.0149,-0.18778 0.0413,-0.30684 0.0772,-0.34806 0.03,-0.0345 0.21382,-0.15737 0.40847,-0.27313 0.19466,-0.11575 0.52071,-0.31369 0.72457,-0.43984 0.20386,-0.12618 0.45915,-0.27128 0.56732,-0.32242 0.10816,-0.0512 0.2252,-0.11885 0.26009,-0.15042 0.12119,-0.10967 0.2284,0.0279 0.12492,0.16034 -0.0232,0.0297 -0.12556,0.0963 -0.22752,0.14809 -0.10196,0.0518 -0.29029,0.1783 -0.41853,0.28117 -0.12822,0.10284 -0.40114,0.30072 -0.60647,0.43979 l -0.37334,0.25281 0.0112,0.15166 c 0.006,0.0834 0.0168,0.15729 0.0235,0.16417 0.0337,0.0344 0.20033,-0.0476 0.48853,-0.24035 0.8261,-0.55253 1.14255,-0.78629 1.31834,-0.97393 0.19226,-0.20521 0.30157,-0.2459 0.32557,-0.12126 0.0153,0.0794 -0.27956,0.40841 -0.66227,0.73898 -0.17312,0.14955 -0.40064,0.36315 -0.50559,0.47459 -0.23343,0.24794 -0.75661,0.71043 -0.85807,0.75853 -0.0409,0.0193 -0.21079,0.1011 -0.37765,0.18161 -0.26762,0.12909 -0.33313,0.147 -0.55615,0.15203 -0.13904,0.003 -0.29072,0 -0.33707,-0.009 z m 0.25819,-0.39513 0.0957,-0.0505 -0.0849,-0.0326 c -0.10835,-0.0416 -0.23082,-0.028 -0.36327,0.0406 -0.0575,0.0297 -0.1319,0.0559 -0.16526,0.0581 -0.0334,0.003 -0.0152,0.0148 0.0405,0.0283 0.14558,0.035 0.36636,0.0148 0.47728,-0.0438 z m 20.49114,-0.10345 c -0.10957,-0.0463 -0.25812,-0.14166 -0.33011,-0.21196 -0.17094,-0.16693 -0.33686,-0.51774 -0.33926,-0.71729 -0.002,-0.13528 0.0744,-0.60409 0.12909,-0.79663 0.0195,-0.0686 0.0136,-0.0701 -0.15943,-0.0416 -0.20008,0.033 -1.00397,0.008 -1.34256,-0.0422 -0.38023,-0.056 -0.6213,-0.29495 -0.59974,-0.59438 l 0.0103,-0.14277 -0.42728,-0.19011 c -0.37354,-0.16618 -0.4405,-0.20846 -0.53228,-0.33628 -0.0577,-0.0804 -0.11944,-0.15513 -0.13708,-0.16605 -0.0177,-0.0109 -0.15162,0.006 -0.29769,0.0373 -0.28673,0.0616 -0.47787,0.0458 -0.41159,-0.0341 0.0206,-0.0249 0.0839,-0.0544 0.1406,-0.0657 0.0567,-0.0114 0.1306,-0.0545 0.16414,-0.0959 0.0335,-0.0414 0.0965,-0.0757 0.13985,-0.0761 0.0928,0 0.1152,-0.0766 0.0486,-0.16359 -0.0377,-0.0493 -0.0609,-0.0543 -0.11517,-0.0251 -0.0374,0.0201 -0.11969,0.0364 -0.18292,0.0364 -0.0722,0 -0.13768,0.0251 -0.17598,0.0674 -0.056,0.0619 -0.15167,0.0927 -0.15167,0.0489 0,-0.054 0.11092,-0.22026 0.18681,-0.27995 0.21694,-0.17063 0.49328,-0.16135 0.67936,0.0228 0.0757,0.0749 0.20176,0.12224 0.63376,0.23786 0.29662,0.0794 0.84945,0.22831 1.22852,0.33094 0.54492,0.14753 0.70185,0.17873 0.74952,0.14893 0.0332,-0.0206 0.0832,-0.0377 0.1113,-0.0377 0.11937,0 0.01,-0.34443 -0.15636,-0.49127 -0.0435,-0.0385 -0.19692,-0.14206 -0.3409,-0.23024 -0.25503,-0.15619 -0.32851,-0.24072 -0.37386,-0.43011 -0.0119,-0.0495 -0.25911,-0.40592 -0.54948,-0.79214 -0.70958,-0.94374 -0.97512,-1.49796 -1.04294,-2.17686 -0.0191,-0.19126 -0.0327,-0.22748 -0.0855,-0.22748 -0.0528,0 -0.0628,0.0266 -0.0628,0.16851 0,0.14607 0.009,0.16854 0.0674,0.16854 0.0524,0 0.0674,0.0222 0.0674,0.1011 0,0.0631 -0.0174,0.10115 -0.0462,0.10115 -0.0293,0 -0.0601,0.071 -0.0845,0.19486 -0.0646,0.32845 -0.3005,0.54486 -0.65126,0.59748 -0.31115,0.0466 -0.52105,-0.10075 -0.60393,-0.4241 -0.0315,-0.12279 -0.0673,-0.18454 -0.12149,-0.20926 -0.1053,-0.048 -0.10114,-0.17049 0.007,-0.21148 0.0762,-0.0288 0.0801,-0.0394 0.0421,-0.11369 -0.0523,-0.10221 -0.0863,-0.11131 -0.95195,-0.25485 -1.23506,-0.20481 -1.20955,-0.19449 -1.20955,-0.48905 0,-0.21043 0.0754,-0.30335 0.246,-0.30335 0.0668,0 0.45503,0.0593 0.86272,0.13187 0.40768,0.0726 0.80456,0.14195 0.88194,0.15423 0.0857,0.0135 0.2306,0.0841 0.37054,0.18018 0.21771,0.14954 0.23626,0.1729 0.35166,0.4427 0.14306,0.33446 0.20631,0.39214 0.30209,0.27543 0.0485,-0.059 0.0653,-0.1316 0.0653,-0.28125 0,-0.17291 -0.01,-0.20415 -0.067,-0.21918 -0.0369,-0.01 -0.0585,-0.0314 -0.048,-0.0483 0.0105,-0.0169 0.008,-0.12933 -0.004,-0.24972 -0.0255,-0.23828 -0.0532,-0.2795 -0.36429,-0.54168 -0.14865,-0.12528 -0.15953,-0.14404 -0.12004,-0.20727 0.0386,-0.0617 0.0294,-0.0866 -0.0809,-0.22127 -0.0684,-0.0834 -0.12433,-0.16711 -0.12433,-0.1859 0,-0.0188 0.043,-0.0648 0.0956,-0.10223 l 0.0956,-0.068 0.15638,0.15875 c 0.1472,0.14946 0.16533,0.15808 0.3089,0.14665 l 0.15251,-0.0122 v -0.21108 -0.21111 l -0.59829,-0.0198 c -0.32906,-0.0108 -1.07608,-0.0146 -1.66004,-0.008 -0.61909,0.007 -1.12939,-0.003 -1.22398,-0.0217 -0.20875,-0.0429 -0.36976,-0.19863 -0.42267,-0.40871 -0.0213,-0.0845 -0.0389,-0.35541 -0.0393,-0.60213 -5.3e-4,-0.24668 -0.0157,-0.59169 -0.0341,-0.76666 -0.0225,-0.21378 -0.0223,-0.32933 5.3e-4,-0.35224 0.0581,-0.0581 0.0379,-0.11618 -0.0563,-0.16201 -0.0748,-0.0364 -0.1,-0.0847 -0.14564,-0.27992 l -0.0552,-0.23593 -0.19904,-0.0103 c -0.10947,-0.006 -0.21055,-0.0284 -0.22461,-0.0506 -0.014,-0.0222 -0.0258,-0.73417 -0.0261,-1.58229 l -5.3e-4,-1.54205 h 0.0927 c 0.051,0 0.36572,0.0304 0.69941,0.0668 0.33369,0.0364 0.64642,0.0665 0.69494,0.0668 h 0.0882 l 0.0158,-0.43786 c 0.0185,-0.51192 0.0319,-0.53748 0.32484,-0.61968 0.31708,-0.089 0.5887,-0.10668 0.64244,-0.0419 0.0397,0.0478 0.0303,0.0608 -0.0757,0.10512 -0.0666,0.0278 -0.14894,0.0506 -0.18307,0.0506 -0.14255,0 -0.1682,0.0663 -0.19245,0.49718 -0.0128,0.22709 -0.013,0.41291 -5.3e-4,0.41291 0.0125,0 0.33528,-0.25996 0.71734,-0.57762 0.65555,-0.54506 0.9422,-0.73585 1.10678,-0.73662 0.1,0 0.2485,0.12528 0.30356,0.25704 0.079,0.18912 0.0601,0.29668 -0.0727,0.41325 -0.15296,0.13433 -0.31846,0.14195 -0.44007,0.0204 -0.0463,-0.0463 -0.10254,-0.0841 -0.12487,-0.084 -0.0627,0 -1.02801,0.82722 -0.99895,0.85558 0.008,0.008 0.12833,0.0243 0.26737,0.0369 0.13904,0.0124 0.74575,0.0743 1.34826,0.13724 l 1.09546,0.11454 0.23594,-0.25029 c 0.34802,-0.3692 0.57018,-0.5492 0.73263,-0.59352 0.14463,-0.0395 0.72618,-0.0988 1.07066,-0.1093 0.18611,-0.006 0.52033,0.0796 0.85951,0.21913 0.33326,0.13713 0.94136,0.29411 0.98198,0.2535 0.009,-0.009 -0.0206,-0.0909 -0.0665,-0.1814 -0.0458,-0.0905 -0.0939,-0.2399 -0.10682,-0.332 -0.0129,-0.0921 -0.0598,-0.22405 -0.10429,-0.29316 -0.0494,-0.0768 -0.0808,-0.17595 -0.0808,-0.2549 0,-0.10554 -0.0192,-0.14343 -0.10496,-0.2068 -0.10059,-0.0744 -0.10399,-0.0848 -0.082,-0.25072 0.0317,-0.2396 0.11691,-0.4164 0.30005,-0.62259 0.086,-0.0968 0.18146,-0.21441 0.21222,-0.26135 0.0733,-0.11189 0.41467,-0.3733 0.57481,-0.44024 0.0943,-0.0394 0.20759,-0.0493 0.44732,-0.0393 0.29512,0.0124 0.34109,0.0241 0.56885,0.14441 0.28223,0.14915 0.44928,0.34095 0.58806,0.67517 0.11885,0.2862 0.22591,0.6473 0.22591,0.76194 0,0.0536 0.0288,0.12634 0.0639,0.16151 0.0514,0.0514 0.0684,0.13541 0.0865,0.42973 0.0124,0.20122 0.0281,0.3832 0.0348,0.40439 0.0206,0.0653 0.38839,0.21426 0.52927,0.21426 0.18429,0 0.30868,0.12989 0.38769,0.40481 0.0573,0.19958 0.0764,0.22426 0.34718,0.44892 0.56906,0.47223 0.79581,0.69228 0.88814,0.86194 0.20817,0.38248 0.54555,1.3962 0.68539,2.05943 0.0751,0.356 0.0853,1.42031 0.0166,1.73588 -0.10168,0.46757 -0.26005,0.85685 -0.43142,1.06053 -0.0759,0.0902 -0.085,0.11927 -0.0516,0.16489 0.12185,0.16653 0.20151,0.44273 0.36602,1.26886 0.18082,0.90805 0.18107,0.91019 0.11291,0.96565 -0.0632,0.0514 -0.0659,0.074 -0.0361,0.30335 0.0177,0.13628 0.0326,0.44701 0.0332,0.69051 l 0.001,0.4427 -0.13343,0.26513 c -0.2346,0.46615 -0.96457,1.35414 -1.34863,1.64058 -0.0643,0.048 -0.10869,0.0955 -0.0986,0.10557 0.0101,0.0101 0.24473,0.0994 0.52142,0.19844 0.7506,0.26868 1.23582,0.48305 1.38764,0.61298 0.26252,0.22471 0.30829,0.56462 0.10359,0.76933 -0.0966,0.0966 -0.10566,0.0987 -0.36074,0.0812 -0.14389,-0.01 -0.34393,-0.0413 -0.44453,-0.0699 -0.28653,-0.0815 -0.6484,-0.11446 -0.75913,-0.0692 -0.0763,0.0312 -0.11678,0.0285 -0.20575,-0.0138 -0.10474,-0.05 -0.11482,-0.0489 -0.18681,0.0185 -0.0419,0.0392 -0.28087,0.15452 -0.53114,0.2562 -0.25027,0.10171 -0.56725,0.2317 -0.70439,0.28887 -0.13715,0.0572 -0.72869,0.26485 -1.31455,0.46144 -0.94493,0.31705 -1.09754,0.35906 -1.3517,0.37205 -0.24975,0.013 -0.31205,0.004 -0.48572,-0.0695 z m -2.32877,-2.73556 c 0.0927,-0.0287 0.30449,-0.0667 0.47067,-0.0844 0.16618,-0.0177 0.31496,-0.045 0.33061,-0.0607 0.0157,-0.0156 -0.0672,-0.0468 -0.18417,-0.0692 -0.11695,-0.0225 -0.36431,-0.0765 -0.5497,-0.12014 -0.75885,-0.17886 -1.0782,-0.24792 -1.09034,-0.23577 -0.0188,0.0188 0.12108,0.18933 0.2016,0.24571 0.0382,0.0268 0.20067,0.12232 0.3611,0.21239 0.16043,0.0901 0.2917,0.16385 0.2917,0.16396 0,0 0.0758,-0.023 0.16853,-0.0519 z m 3.87126,-1.28786 c 0.21809,-0.16552 0.42631,-0.36636 0.42631,-0.41121 0,-0.0576 -0.14806,-0.13446 -0.45725,-0.23747 -0.33473,-0.11152 -1.24475,-0.54639 -1.6008,-0.76496 -0.12157,-0.0746 -0.25429,-0.14626 -0.29493,-0.15915 -0.22383,-0.0711 0.10071,0.42762 0.46542,0.71515 0.13904,0.10959 0.44822,0.40616 0.68709,0.65902 0.43066,0.4559 0.43492,0.45926 0.50927,0.40127 0.0412,-0.0322 0.16044,-0.12335 0.26489,-0.20265 z m -6.07904,-2.18469 c 0,-0.0111 -0.0299,-0.058 -0.0665,-0.10453 -0.0366,-0.0465 -0.0762,-0.13613 -0.088,-0.19913 -0.0205,-0.10956 -0.0814,-0.16235 -0.0814,-0.0706 0,0.067 0.17037,0.39423 0.20525,0.39423 0.0169,0 0.0307,-0.009 0.0307,-0.0198 z m -0.41585,-0.66259 c -0.009,-0.023 -0.017,-0.004 -0.017,0.0421 0,0.0463 0.008,0.0653 0.017,0.0421 0.009,-0.023 0.009,-0.0611 0,-0.0843 z m 1.02834,-0.0135 c 0.048,-0.0434 0.0607,-0.10117 0.0572,-0.26122 l -0.004,-0.20542 -0.0255,0.19989 c -0.0154,0.12091 -0.047,0.21558 -0.0798,0.23966 -0.0558,0.0408 -0.0719,0.0829 -0.0318,0.0829 0.0124,0 0.0504,-0.0251 0.0843,-0.0558 z m -1.18549,-0.41177 c 0,-0.0161 -0.30716,-0.0775 -0.68256,-0.13636 -1.10529,-0.17328 -1.13759,-0.18405 -1.13759,-0.37878 0,-0.0528 -0.0152,-0.0959 -0.0337,-0.0959 -0.0185,0 -0.0337,0.0391 -0.0337,0.0868 0,0.1366 0.16191,0.27384 0.35686,0.30244 0.0911,0.0132 0.45378,0.0737 0.80601,0.13417 0.74746,0.12822 0.72469,0.12547 0.72469,0.0876 z m 6.8424,-0.019 c 0,-0.008 -0.0891,-0.21664 -0.19805,-0.46347 -0.10893,-0.24678 -0.23163,-0.54163 -0.27267,-0.65527 l -0.0746,-0.20653 -0.21693,0.0175 -0.21693,0.0175 -0.13648,-0.14785 c -0.0751,-0.0813 -0.14483,-0.18958 -0.15504,-0.24062 -0.0102,-0.051 -0.0394,-0.0928 -0.0649,-0.0928 -0.0255,0 -0.0784,-0.032 -0.11756,-0.0712 -0.0552,-0.0553 -0.0669,-0.0975 -0.0522,-0.18836 0.0159,-0.0981 0.0102,-0.11377 -0.0352,-0.0963 -0.0652,0.0251 -0.31328,-0.13068 -0.31328,-0.19661 0,-0.0254 -0.0341,-0.0703 -0.0758,-0.1 l -0.0758,-0.054 0.14548,-0.13364 0.14549,-0.13361 -0.25421,-0.30134 c -0.13981,-0.1657 -0.27857,-0.31064 -0.30835,-0.32205 -0.0298,-0.0116 -0.12943,-0.0209 -0.22145,-0.0209 -0.13349,0 -0.18433,-0.0172 -0.25152,-0.0842 -0.0765,-0.0765 -0.0833,-0.1063 -0.0743,-0.32469 0.008,-0.20378 0.0211,-0.24789 0.0837,-0.28927 0.0699,-0.0463 0.0774,-0.0417 0.14182,0.0846 0.10345,0.20278 0.24984,0.23543 0.36391,0.0811 0.0684,-0.0926 0.0686,-0.0964 0.008,-0.21066 -0.0839,-0.15751 -0.0813,-0.16714 0.0448,-0.16542 0.15638,0.003 0.26586,0.0602 0.46089,0.24421 0.17514,0.16529 0.20631,0.23596 0.12496,0.2835 -0.10938,0.0639 -0.0925,0.16521 0.0669,0.40122 0.20464,0.30295 0.18487,0.28699 0.31048,0.25096 0.0771,-0.0222 0.15563,-0.0175 0.26562,0.0156 0.0859,0.0259 0.16716,0.0402 0.18059,0.0319 0.0134,-0.008 0.012,-0.0721 -0.003,-0.14168 -0.0152,-0.0696 -0.0345,-0.17208 -0.0429,-0.2277 -0.008,-0.0556 -0.0465,-0.20201 -0.0847,-0.32533 -0.0633,-0.2045 -0.2707,-1.1924 -0.33429,-1.5924 -0.0145,-0.0911 -0.0488,-0.17605 -0.0766,-0.1897 -0.19793,-0.0972 -0.32973,-0.12975 -0.61171,-0.15089 l -0.32149,-0.0241 -0.0234,0.36597 c -0.0378,0.59272 -0.10714,0.74099 -0.41659,0.89117 -0.18639,0.0904 -0.50417,0.10184 -1.46644,0.0526 l -0.56459,-0.0289 v 0.1343 c 0,0.15028 -0.0287,0.18325 -0.21066,0.24188 -0.11217,0.0361 -0.18035,0.13661 -0.0927,0.13661 0.0185,0 0.0337,0.037 0.0337,0.0823 0,0.0453 -0.0152,0.0916 -0.0337,0.10311 -0.0185,0.0116 -0.0337,0.14886 -0.0337,0.30533 0,0.16719 -0.0139,0.28451 -0.0337,0.28451 -0.0185,0 -0.0337,0.023 -0.0337,0.0506 0,0.0278 0.0152,0.0506 0.0337,0.0506 0.0437,0 0.0442,0.29419 5.3e-4,0.30898 -0.0217,0.007 -0.0205,0.1501 0.003,0.41257 0.0452,0.49442 0.0167,0.86111 -0.0763,0.9793 -0.0628,0.0798 -0.0654,0.11716 -0.0425,0.61616 0.0213,0.46315 0.0291,0.51488 0.0612,0.40407 0.0502,-0.1733 0.19178,-0.34091 0.38288,-0.45323 0.15831,-0.0931 0.16382,-0.0937 0.7157,-0.0886 0.7106,0.007 1.71524,0.15053 2.55471,0.36574 0.39934,0.10237 0.62839,0.14544 0.70084,0.13187 0.0948,-0.018 0.1301,0 0.29626,0.15062 0.10374,0.094 0.23055,0.18008 0.2818,0.19138 0.0513,0.0114 0.10835,0.0257 0.12689,0.0318 0.052,0.0175 0.0843,0.018 0.0843,0.003 z m -5.70472,-0.39817 -0.0174,-0.24434 -0.22995,-0.21066 c -0.12647,-0.11589 -0.24496,-0.21069 -0.26331,-0.21069 -0.0184,0 0.0757,0.10239 0.2091,0.22757 l 0.24247,0.22756 v 0.22749 c 0,0.14711 0.0135,0.22744 0.0382,0.22744 0.0266,0 0.0329,-0.0744 0.0208,-0.24437 z m -0.61632,-1.02711 c -0.0521,-0.07 -0.0997,-0.13364 -0.10582,-0.14137 -0.006,-0.008 -0.0202,-0.005 -0.0313,0.006 -0.0111,0.0111 0.0293,0.0819 0.0899,0.15727 0.13692,0.17039 0.17664,0.15179 0.0472,-0.0222 z m -3.14344,-0.80989 c -0.0447,-0.0993 -0.0583,-0.24196 -0.0633,-0.66569 -0.005,-0.43982 -0.0301,-0.78682 -0.0801,-1.11231 -0.003,-0.0185 -0.0164,0.004 -0.0302,0.0506 -0.0138,0.0464 -0.0115,0.10184 0.005,0.12332 0.0164,0.0214 0.03,0.10488 0.0301,0.18537 5.3e-4,0.55226 0.0546,1.37044 0.0958,1.45248 0.0706,0.14039 0.10797,0.11094 0.0428,-0.0337 z m 3.27935,-0.20098 c -1.1006,-0.0233 -2.74711,-0.0241 -2.74709,0 0,0.0138 0.7167,0.022 1.59265,0.018 0.87594,-0.004 1.39544,-0.0116 1.15444,-0.0167 z m 0.55616,-0.0771 c 0,-0.0185 -0.0228,-0.0337 -0.0506,-0.0337 -0.0278,0 -0.0506,0.0151 -0.0506,0.0337 0,0.0185 0.0228,0.0337 0.0506,0.0337 0.0278,0 0.0506,-0.0151 0.0506,-0.0337 z m -0.10347,-0.041 0.13142,-0.041 -0.003,-0.22021 c -0.002,-0.12425 -0.009,-0.16513 -0.016,-0.0938 -0.0169,0.16867 -0.076,0.16211 -0.076,-0.008 0,-0.0974 0.014,-0.13484 0.0506,-0.13484 0.0281,0 0.0506,-0.0299 0.0506,-0.0674 0,-0.0371 -0.0152,-0.0674 -0.0337,-0.0674 -0.0185,0 -0.0337,-0.0455 -0.0337,-0.10109 0,-0.0675 0.0169,-0.10113 0.0505,-0.10113 0.0388,0 0.0506,-0.0431 0.0506,-0.18539 0,-0.16293 -0.008,-0.1854 -0.0674,-0.1854 -0.0854,0 -0.092,-0.12628 -0.01,-0.18645 0.0488,-0.0357 0.0508,-0.0506 0.0127,-0.0964 -0.0247,-0.0298 -0.0701,-0.0542 -0.10078,-0.0542 -0.12461,0 -0.20561,-0.0988 -0.20561,-0.2508 0,-0.16928 -0.0311,-0.18618 -0.34305,-0.18695 -0.10526,0 -0.30244,-0.0146 -0.43819,-0.0316 -0.13574,-0.0172 -0.63738,-0.0396 -1.11474,-0.0498 -0.84828,-0.018 -0.86794,-0.0172 -0.86794,0.048 0,0.0367 -0.0152,0.0666 -0.0337,0.0666 -0.0185,0 -0.0337,0.0577 -0.0337,0.12821 0,0.11203 -0.0154,0.13701 -0.12214,0.19802 l -0.12214,0.0698 -0.0138,0.29773 c -0.009,0.19923 -0.0303,0.31602 -0.0637,0.3529 -0.0409,0.0452 -0.046,0.12713 -0.028,0.45643 0.012,0.22072 0.0369,0.42027 0.0551,0.44345 0.0472,0.0599 3.13441,0.0609 3.32587,0 z m 0.17088,-0.73422 c 0,-0.0371 -0.0152,-0.0674 -0.0337,-0.0674 -0.0185,0 -0.0337,0.0303 -0.0337,0.0674 0,0.0371 0.0152,0.0674 0.0337,0.0674 0.0185,0 0.0337,-0.0303 0.0337,-0.0674 z m 0.12531,-0.36187 c -0.008,-0.0512 -0.0143,-0.0175 -0.0146,0.0754 0,0.0927 0.006,0.13462 0.0141,0.0932 0.008,-0.0415 0.008,-0.11729 5.3e-4,-0.16851 z m -0.17236,-0.23572 c -0.0343,-0.0343 -0.0625,0.0175 -0.0344,0.0628 0.0212,0.0344 0.0292,0.0344 0.0406,0 0.008,-0.0233 0.005,-0.0518 -0.006,-0.063 z m -0.17989,-0.42201 c -0.0251,-0.19656 -0.0427,-0.20235 -0.0427,-0.014 0,0.0865 0.0137,0.1573 0.0305,0.1573 0.0168,0 0.0223,-0.0645 0.0122,-0.14322 z m -3.96033,-0.16012 c -0.0367,-0.1931 -0.0934,-0.30255 -0.0934,-0.18032 0,0.038 0.0165,0.12068 0.0367,0.1837 0.0202,0.063 0.0433,0.13571 0.0514,0.16156 0.0344,0.1102 0.0379,0.006 0.005,-0.16494 z m 7.02778,-0.0673 c 0.29049,-0.13665 0.3527,-0.27966 0.36667,-0.84277 l 0.009,-0.35394 -1.05465,-0.0786 c -0.58005,-0.0432 -1.06008,-0.0732 -1.06672,-0.0665 -0.007,0.007 -0.0381,0.14441 -0.0699,0.30615 -0.0318,0.16174 -0.0689,0.29405 -0.0825,0.29405 -0.0825,0 -0.16886,-0.13358 -0.1921,-0.29704 l -0.0255,-0.17913 -0.12525,0.16442 c -0.17004,0.2232 -0.24216,0.28368 -0.30807,0.25839 -0.0383,-0.0148 -0.0554,-0.0618 -0.0554,-0.15275 0,-0.12123 -0.005,-0.12835 -0.0647,-0.0911 -0.092,0.0575 -0.17127,-0.0175 -0.17127,-0.16192 0,-0.0974 -0.0116,-0.11385 -0.0802,-0.11385 -0.0441,0 -0.10096,-0.0301 -0.1264,-0.067 -0.0283,-0.0411 -0.0919,-0.0704 -0.16421,-0.0758 l -0.11797,-0.009 -0.0249,0.38764 c -0.0137,0.21318 -0.041,0.44492 -0.0606,0.51499 -0.0407,0.14538 -0.21225,0.28741 -0.4647,0.38486 l -0.15755,0.0608 0.16854,0.0225 c 0.0927,0.0124 0.29971,0.0236 0.46005,0.0254 0.16033,0.003 0.74429,0.0332 1.29769,0.0701 0.5534,0.0369 1.09718,0.0729 1.20842,0.08 0.42308,0.0269 0.73449,0 0.90239,-0.0796 z m -4.10316,-0.18716 c 0.28439,-0.0739 0.52265,-0.21683 0.5924,-0.35534 0.0657,-0.13049 0.12855,-0.9407 0.073,-0.9407 -0.0175,0 -0.62205,-0.0452 -1.34356,-0.10051 -0.7215,-0.0553 -1.41799,-0.10848 -1.54776,-0.11824 -0.12977,-0.01 -0.43154,-0.0328 -0.6706,-0.0512 -0.23906,-0.0183 -0.47795,-0.0334 -0.53088,-0.0334 h -0.0962 v 0.74261 c 0,0.56406 0.0101,0.74599 0.0421,0.75676 0.0767,0.0259 2.29158,0.14303 2.79055,0.14769 0.34656,0.003 0.54892,-0.0109 0.69098,-0.0477 z m 5.10519,-1.04272 c 0,-0.0246 -0.42763,-0.5736 -0.47835,-0.6141 -0.0243,-0.0193 -0.44606,-0.0757 -0.93733,-0.12528 -0.49127,-0.0495 -0.96239,-0.0985 -1.04694,-0.10885 l -0.15373,-0.0188 -0.0373,0.12991 c -0.0205,0.0714 -0.0476,0.22471 -0.0603,0.34055 l -0.0229,0.21066 0.1297,0.003 c 0.0952,0.003 2.21918,0.16405 2.56501,0.19646 0.0232,0.003 0.0421,-0.003 0.0421,-0.0122 z m -4.05132,-0.35166 c 0.0101,-0.0304 -0.006,-0.0369 -0.0548,-0.0217 -0.0489,0.0156 -0.0796,0.003 -0.10399,-0.0427 -0.0426,-0.0796 -0.005,-0.22135 0.1135,-0.43434 0.0476,-0.0851 0.0825,-0.15724 0.0776,-0.16018 -0.005,-0.003 -1.01758,-0.10795 -2.25039,-0.23342 -1.23282,-0.12544 -2.26423,-0.23071 -2.29204,-0.23394 -0.0425,-0.005 -0.0506,0.0609 -0.0506,0.41553 v 0.42132 l 2.24148,0.17251 c 1.23281,0.0949 2.2557,0.16973 2.27307,0.16639 0.0174,-0.003 0.0381,-0.0257 0.0461,-0.0496 z m 3.24947,-0.57738 c -0.38323,-0.3642 -0.40651,-0.37388 -1.06277,-0.44249 -0.48197,-0.0504 -0.58527,-0.0529 -0.62281,-0.0153 -0.0347,0.0347 -0.11746,0.42241 -0.0956,0.44789 0.005,0.006 1.83037,0.20372 1.92577,0.20828 0.0496,0.003 0.0115,-0.05 -0.14457,-0.19826 z m -2.85879,-0.39798 0.19875,-0.20225 -0.11449,-0.0183 c -0.063,-0.0101 -0.26616,-0.0334 -0.45154,-0.0517 -0.75181,-0.0745 -4.29181,-0.44132 -4.44082,-0.46016 l -0.16011,-0.0204 v 0.25594 c 0,0.14081 0.004,0.2568 0.008,0.25783 0.1715,0.0376 4.67597,0.48361 4.71047,0.46644 0.0278,-0.0138 0.14,-0.11621 0.24931,-0.22744 z m -2.42241,-0.86813 c 0.44845,-0.38036 0.86025,-0.68643 0.95592,-0.71043 0.0562,-0.014 0.12681,0.003 0.21092,0.0515 0.16281,0.0937 0.28043,0.093 0.34707,-0.003 0.12429,-0.1774 0.007,-0.4314 -0.19778,-0.42992 -0.057,0 -0.16434,0.0288 -0.23849,0.0631 -0.11619,0.0537 -1.56735,1.22934 -1.56735,1.26974 0,0.008 0.0421,0.0146 0.0937,0.0146 0.0677,0 0.17744,-0.0711 0.39605,-0.25649 z m -0.77982,0.1695 c 0.0113,-0.0293 0.0205,-0.23376 0.0205,-0.45429 0,-0.38553 0.003,-0.40294 0.0805,-0.45371 0.0443,-0.029 0.1846,-0.0735 0.31178,-0.0987 0.19555,-0.0389 0.21043,-0.0463 0.0964,-0.0479 -0.17011,-0.003 -0.50226,0.0758 -0.60368,0.14224 -0.0721,0.0472 -0.0785,0.0798 -0.0959,0.48286 -0.0103,0.23771 -0.0116,0.44363 -0.003,0.45752 0.0289,0.0468 0.17277,0.0259 0.19345,-0.028 z m 2.65057,12.68941 c -0.0458,-0.0182 -0.13619,-0.0736 -0.20087,-0.12295 -0.0647,-0.0493 -0.1789,-0.0979 -0.25381,-0.10787 -0.10794,-0.0143 -0.13839,-0.0336 -0.14678,-0.0927 -0.0111,-0.0778 -0.0336,-0.0866 -0.89283,-0.34634 -0.16318,-0.0493 -0.29255,-0.10379 -0.2875,-0.12096 0.005,-0.0172 0.0248,-0.0276 0.0439,-0.023 0.0191,0.004 0.28436,0.0746 0.5895,0.15597 0.43937,0.11716 0.56752,0.14004 0.61592,0.10996 0.0475,-0.0296 0.0833,-0.0254 0.16082,0.019 0.0548,0.0314 0.22154,0.0749 0.37047,0.0966 0.39503,0.0577 0.52727,0.19309 0.38589,0.39497 -0.0575,0.0821 -0.23063,0.0989 -0.38471,0.0374 z"
       style="display:inline;fill:none;stroke:#00ffff;stroke-width:0.52916664;stroke-miterlimit:4;stroke-dasharray:none;stroke-opacity:1" />
  </g>
</svg>
