<?xml version="1.0" encoding="UTF-8" standalone="no"?>
<svg
   xmlns:dc="http://purl.org/dc/elements/1.1/"
   xmlns:cc="http://creativecommons.org/ns#"
   xmlns:rdf="http://www.w3.org/1999/02/22-rdf-syntax-ns#"
   xmlns:svg="http://www.w3.org/2000/svg"
   xmlns="http://www.w3.org/2000/svg"
   id="svg789"
   version="1.1"
   viewBox="0 0 25.127846 26.987609"
   height="26.98761mm"
   width="25.127846mm">
  <defs
     id="defs783">
    <filter
       id="filter7901"
       style="color-interpolation-filters:sRGB">
      <feFlood
         id="feFlood7903"
         result="flood"
         flood-color="rgb(0,0,0)"
         flood-opacity="0.623529" />
      <feComposite
         id="feComposite7905"
         result="composite1"
         operator="in"
         in2="SourceGraphic"
         in="flood" />
      <feGaussianBlur
         id="feGaussianBlur7907"
         result="blur"
         stdDeviation="5.01283"
         in="composite1" />
      <feOffset
         id="feOffset7909"
         result="offset"
         dy="4"
         dx="1" />
      <feComposite
         id="feComposite7911"
         result="composite2"
         operator="over"
         in2="offset"
         in="SourceGraphic" />
    </filter>
    <filter
       id="filter7889"
       style="color-interpolation-filters:sRGB">
      <feFlood
         id="feFlood7891"
         result="flood"
         flood-color="rgb(0,0,0)"
         flood-opacity="0.623529" />
      <feComposite
         id="feComposite7893"
         result="composite1"
         operator="in"
         in2="SourceGraphic"
         in="flood" />
      <feGaussianBlur
         id="feGaussianBlur7895"
         result="blur"
         stdDeviation="5.01283"
         in="composite1" />
      <feOffset
         id="feOffset7897"
         result="offset"
         dy="4"
         dx="1" />
      <feComposite
         id="feComposite7899"
         result="composite2"
         operator="over"
         in2="offset"
         in="SourceGraphic" />
    </filter>
  </defs>
  <metadata
     id="metadata786">
    <rdf:RDF>
      <cc:Work
         rdf:about="">
        <dc:format>image/svg+xml</dc:format>
        <dc:type
           rdf:resource="http://purl.org/dc/dcmitype/StillImage" />
        <dc:title></dc:title>
      </cc:Work>
    </rdf:RDF>
  </metadata>
  <g
     transform="translate(-99.487866,-204.91483)"
     id="layer1">
    <path
       id="path4210"
       d="m 100.66832,231.5757 c -0.42112,-0.15076 -0.714885,-0.44307 -0.855381,-0.85119 -0.04228,-0.12282 -0.06049,-0.80137 -0.06049,-2.25333 0,-1.89812 0.0088,-2.11198 0.101878,-2.47592 0.312013,-1.21994 1.171643,-2.16034 2.339313,-2.5591 0.14998,-0.0512 1.30203,-0.29765 2.56011,-0.54761 l 2.28741,-0.4545 v -1.0913 -1.0913 l -0.17411,-0.13893 c -0.25684,-0.20492 -0.64539,-0.74123 -0.83563,-1.1534 -0.31812,-0.68919 -0.33422,-0.8336 -0.33476,-3.00149 l -5.3e-4,-1.96103 -0.53319,-0.30031 c -0.59387,-0.33446 -0.79372,-0.4962 -0.83975,-0.67958 -0.0475,-0.18944 0.0819,-0.4083 0.27508,-0.46519 0.133,-0.0392 0.1722,-0.0819 0.18967,-0.20677 0.16156,-1.1547 0.36761,-1.89312 0.72978,-2.61527 0.29519,-0.5886 0.76889,-1.28567 1.17518,-1.72927 0.25128,-0.27437 0.33928,-0.41111 0.364,-0.56555 0.0468,-0.29233 0.18307,-0.40806 0.47536,-0.40364 0.19431,0.003 0.29498,-0.0335 0.53677,-0.19405 0.46321,-0.30768 1.19242,-0.65834 1.73269,-0.83322 0.35146,-0.11378 0.5014,-0.18759 0.52368,-0.25779 0.0538,-0.16936 0.28735,-0.40857 0.47596,-0.48739 0.22199,-0.0927 2.24296,-0.10959 2.47833,-0.0206 0.18852,0.0712 0.40648,0.28074 0.4822,0.46357 0.0512,0.12367 0.13158,0.16777 0.5564,0.30528 0.54697,0.17703 1.27158,0.52496 1.72923,0.83026 0.2399,0.15999 0.34121,0.19688 0.53314,0.19397 0.28988,-0.005 0.42645,0.11213 0.4731,0.40367 0.0249,0.15444 0.11274,0.29118 0.36401,0.56555 0.1823,0.19902 0.47133,0.56996 0.64231,0.82433 0.724,1.07702 1.04671,1.97676 1.26267,3.52021 0.0175,0.12488 0.0567,0.16761 0.18968,0.20677 0.19319,0.0569 0.32263,0.27575 0.27508,0.46519 -0.0459,0.18288 -0.24233,0.342 -0.83735,0.67834 l -0.53351,0.30154 -0.003,1.96104 c -0.003,2.16741 -0.018,2.31291 -0.33581,3.00149 -0.19024,0.41217 -0.5788,0.94848 -0.83563,1.1534 l -0.1741,0.13893 v 1.08873 l -3e-5,1.08874 2.28624,0.45595 c 1.25743,0.25077 2.40948,0.49835 2.56011,0.55018 1.16985,0.40251 2.03372,1.3486 2.34106,2.56394 0.0981,0.38783 0.10374,0.5483 0.0901,2.55413 -0.0135,1.98935 -0.0217,2.15442 -0.11379,2.34016 -0.12216,0.24609 -0.38854,0.51038 -0.64109,0.63601 -0.18238,0.0907 -0.65402,0.0951 -11.45929,0.10551 -9.36717,0.009 -11.30205,0 -11.46458,-0.0591 z m 3.17861,-2.13582 c 0.0174,-1.25609 0.0254,-1.34848 0.14105,-1.63965 0.15718,-0.39564 0.54188,-0.78598 0.94581,-0.9597 l 0.29635,-0.12745 8e-4,-1.51201 c 7.9e-4,-1.21055 -0.0126,-1.51205 -0.0667,-1.51205 -0.0372,0 -0.64778,0.11655 -1.35695,0.25898 -1.00078,0.201 -1.3704,0.2976 -1.65125,0.43156 -0.66967,0.31938 -1.21142,0.9443 -1.43503,1.65531 -0.11179,0.35542 -0.11576,0.43874 -0.11576,2.42726 v 2.05923 l 0.14504,0.1248 0.14503,0.12481 h 1.46651 1.46651 l 0.0185,-1.33109 z m 15.53842,0.022 c -0.0153,-1.29749 -0.0164,-1.31086 -0.14375,-1.49636 -0.0706,-0.10294 -0.2218,-0.24074 -0.336,-0.30622 l -0.20767,-0.11907 h -6.64255 -6.64255 l -0.20766,0.11907 c -0.11421,0.0655 -0.26541,0.20328 -0.336,0.30622 -0.1272,0.1855 -0.12848,0.19887 -0.14376,1.49636 l -0.0154,1.30915 h 7.34537 7.34539 l -0.0153,-1.30915 z m 3.92049,1.23369 c 0.22397,-0.15689 0.23413,-0.269 0.21373,-2.36114 -0.0183,-1.871 -0.0257,-2.00213 -0.13187,-2.31915 -0.23569,-0.70379 -0.75824,-1.30074 -1.42563,-1.62854 -0.29972,-0.14721 -0.61232,-0.23005 -1.65873,-0.43952 -0.70916,-0.14198 -1.31979,-0.25813 -1.35694,-0.25813 -0.0541,0 -0.0674,0.30149 -0.0667,1.51204 v 1.51202 l 0.29636,0.12713 c 0.39503,0.16946 0.79243,0.57515 0.94914,0.96893 0.11155,0.28032 0.12044,0.38544 0.13772,1.63073 l 0.0185,1.33109 h 1.45791 c 1.19456,0 1.47735,-0.0138 1.56564,-0.0755 z m -16.26468,-5.69417 v -1.6859 l -0.22381,0.0336 c -0.1231,0.0185 -0.33827,0.0618 -0.47816,0.0963 l -0.25435,0.0628 -0.0137,1.52437 c -0.008,0.83838 -0.002,1.55369 0.0113,1.58954 0.0176,0.0458 0.16381,0.0652 0.49188,0.0652 h 0.46686 v -1.6859 z m 9.14966,0.5733 v -1.1126 l -0.26562,0.20994 c -1.18501,0.93671 -3.78624,1.29921 -5.86,0.81667 -0.80366,-0.18701 -1.38913,-0.44635 -1.91667,-0.84905 l -0.22859,-0.17451 v 1.11104 1.11107 h 4.13544 4.13544 z m 1.8351,-0.48988 v -1.57665 l -0.25435,-0.0628 c -0.13988,-0.0345 -0.35504,-0.0779 -0.47815,-0.0963 l -0.22381,-0.0336 v 1.68786 1.68783 l 0.47815,-0.0148 0.47816,-0.0148 v -1.57662 z m -4.64627,-0.33811 c 1.31519,-0.19529 2.23499,-0.71022 2.63887,-1.47733 0.14526,-0.27585 0.14661,-0.28702 0.1632,-1.35776 0.0159,-1.02423 0.0119,-1.07778 -0.0768,-1.04373 -0.0514,0.0198 -0.51258,0.2644 -1.02476,0.54369 -1.84303,1.00505 -2.00522,1.06199 -3.02477,1.06199 -1.02063,0 -1.1478,-0.0443 -2.97235,-1.03614 -0.54019,-0.29363 -1.02422,-0.54985 -1.07564,-0.56935 -0.0886,-0.0336 -0.0926,0.0196 -0.0775,1.01801 0.0155,1.02232 0.0201,1.06235 0.15663,1.35374 0.35697,0.76192 1.29088,1.30048 2.61154,1.50603 0.63187,0.0983 2.02202,0.0988 2.68163,0 z m -0.53417,-3.20667 c 0.38018,-0.0985 0.4826,-0.14888 2.18226,-1.07315 1.20094,-0.65307 1.383,-0.76949 1.71016,-1.09344 0.24418,-0.24181 0.42077,-0.47448 0.53017,-0.69856 0.28194,-0.57748 0.31658,-0.87254 0.31758,-2.7065 0,-1.54742 -0.004,-1.64468 -0.0896,-1.61189 -0.26789,0.10337 -1.19668,0.35523 -1.69293,0.45907 l -0.56862,0.11901 -0.0148,0.47221 c -0.0138,0.43828 -0.0243,0.47974 -0.14912,0.57779 -0.18259,0.14362 -0.40566,0.1352 -0.56208,-0.0212 -0.11253,-0.1125 -0.1269,-0.17151 -0.1269,-0.52065 v -0.39375 l -0.28024,0.035 c -0.83929,0.10485 -3.15876,0.10501 -4.04905,0 l -0.32308,-0.038 v 0.39513 c 0,0.35057 -0.0143,0.40941 -0.12688,0.522 -0.15643,0.15642 -0.37952,0.16486 -0.5621,0.0212 -0.12456,-0.098 -0.13536,-0.13967 -0.14912,-0.57576 l -0.0148,-0.47016 -0.74954,-0.17002 c -0.63874,-0.14489 -1.25569,-0.31398 -1.53102,-0.41963 -0.10761,-0.0413 -0.10184,3.11359 0.007,3.62799 0.11789,0.55904 0.35028,0.98023 0.77054,1.39658 0.33186,0.32877 0.50165,0.43592 1.81354,1.14456 0.79608,0.43 1.50556,0.81203 1.57664,0.84899 0.47522,0.24712 1.47547,0.33015 2.08243,0.17288 z m -1.59134,-1.85571 c -0.72369,-0.13356 -1.32542,-0.42058 -1.42372,-0.67913 -0.0917,-0.24128 0.0363,-0.48011 0.30042,-0.56063 0.0806,-0.0246 0.21802,0.0132 0.43939,0.12073 0.48238,0.23442 0.86698,0.31636 1.48515,0.31636 0.61698,0 1.0028,-0.0819 1.48167,-0.31466 0.23008,-0.11182 0.35711,-0.14515 0.45725,-0.12002 0.17685,0.0444 0.34761,0.313 0.30919,0.48636 -0.12549,0.56647 -1.80623,0.98038 -3.04935,0.75099 z m 2.12482,-5.40351 c 0.8744,-0.068 1.66587,-0.18123 2.39832,-0.34311 0.63328,-0.13993 1.6992,-0.46365 1.78083,-0.54081 0.029,-0.0274 -2.22047,-0.0464 -5.50273,-0.0464 -3.28225,0 -5.53175,0.019 -5.50272,0.0464 0.0821,0.0776 1.14944,0.40132 1.78083,0.54015 1.5671,0.3446 3.41548,0.47054 5.04547,0.34377 z m -6.3378,-3.54081 c 0,-0.98089 -0.0109,-1.78342 -0.0243,-1.78342 -0.0496,0 -0.53652,0.76239 -0.72126,1.12927 -0.32131,0.63804 -0.65018,1.80906 -0.65018,2.3151 v 0.12245 h 0.69785 0.69786 v -1.7834 z m 3.20497,-1.08556 c 0,-1.57792 -0.0196,-2.86895 -0.0436,-2.86895 -0.25293,0 -1.34013,0.53072 -1.88197,0.91868 l -0.40062,0.28686 v 2.26619 2.26618 h 1.16309 1.1631 z m 2.73974,-0.36184 v -3.23083 h -0.93049 -0.93046 v 3.23083 3.2308 h 0.93046 0.93049 z m 3.20495,0.96628 v -2.26454 l -0.33499,-0.24596 c -0.52705,-0.38697 -1.6919,-0.96289 -1.9476,-0.96289 -0.0241,0 -0.0436,1.29103 -0.0436,2.86895 v 2.86896 h 1.16311 1.16308 z m 2.27449,2.14207 c 0,-0.50546 -0.32882,-1.67698 -0.64934,-2.31344 -0.19785,-0.3929 -0.61703,-1.05709 -0.69916,-1.10786 -0.0281,-0.0175 -0.0472,0.69276 -0.0472,1.75728 v 1.78647 h 0.69786 0.69784 z"
       style="display:inline;fill:none;stroke:#FFBA3C;stroke-width:0.52916664;stroke-miterlimit:4;stroke-dasharray:none;stroke-opacity:1" />
  </g>
</svg>
