<svg xmlns="http://www.w3.org/2000/svg" width="69.936" height="50" viewBox="0 0 18.504 13.229"><path d="M18.504.604c.011-.291-1.193.87-2.962 2.61L14.32 4.417l-.612-.316c-.337-.174-.73-.265-.874-.201-.144.064-1.025 1.005-1.958 2.093C9.522 7.57 9.099 7.946 8.78 7.854c-.22-.063-.578-.158-.798-.212-.282-.069-1.394.615-3.791 2.331C2.325 11.31.619 12.588.399 12.816L0 13.229l.499-.305c.274-.168 1.801-1.095 3.392-2.06C5.483 9.9 7.025 8.943 7.318 8.738c.523-.365.547-.365 1.223.034l.689.407 1.945-2.186 1.946-2.184.67.319.67.32 1.25-1.2c1.915-1.837 2.736-2.216 2.746-2.472zm-.11 1.667l-.894.877-3.515 3.589c-1.418 1.447-2.516 2.631-2.44 2.631.076 0 .821-.452 1.656-1.005.835-.553 1.55-.973 1.59-.933.04.04.196.425.347.856l.274.783.34-.798c.186-.44.389-1.046.45-1.348.134-.657.138-.657.98-.137l.664.41.104-.46c.056-.253.126-.762.156-1.13l.054-.668c.078-.905.432-2.827.234-2.667zM13.34 5.177c-.25 0-1.444 1.192-2.027 2.025-.352.503-.296.477 1.233-.565.533-.364 1.095-.662 1.247-.662.152 0 .277-.071.277-.159 0-.246-.45-.639-.73-.639zM7.68 8.905l-1.346.935c-.74.514-1.57 1.117-1.845 1.34-.343.278-.104.21.767-.218 1.165-.572 1.286-.594 1.512-.284.22.3.293.257.685-.407.33-.56.522-.707.782-.6 1.245.513 1.354.25.16-.385z" fill="#0ff"/><g font-weight="400" font-family="Ubuntu" letter-spacing="0" word-spacing="0" fill="#00fefe"><text style="line-height:29.284338px;-inkscape-font-specification:Ubuntu" x="411.698" y="77.804" transform="matrix(.11878 0 0 .1217 -41.735 -2.284)" font-size="84.339" stroke-width="1.171"><tspan x="411.698" y="77.804" style="line-height:33.69128799px">P</tspan></text><text style="line-height:25px;-inkscape-font-specification:Ubuntu" x="421.461" y="78.753" font-size="28" transform="translate(-41.735 -2.284) scale(.12023)"><tspan x="421.461" y="78.753">F</tspan></text></g></svg>