<?xml version="1.0" encoding="UTF-8" standalone="no"?>
<!-- Created with Inkscape (http://www.inkscape.org/) -->

<svg
   xmlns:dc="http://purl.org/dc/elements/1.1/"
   xmlns:cc="http://creativecommons.org/ns#"
   xmlns:rdf="http://www.w3.org/1999/02/22-rdf-syntax-ns#"
   xmlns:svg="http://www.w3.org/2000/svg"
   xmlns="http://www.w3.org/2000/svg"
   xmlns:sodipodi="http://sodipodi.sourceforge.net/DTD/sodipodi-0.dtd"
   xmlns:inkscape="http://www.inkscape.org/namespaces/inkscape"
   width="23.384331mm"
   height="23.414312mm"
   viewBox="0 0 23.384331 23.414312"
   version="1.1"
   id="svg3003"
   inkscape:version="0.92.2 5c3e80d, 2017-08-06"
   sodipodi:docname="clock.svg">
  <defs
     id="defs2997" />
  <sodipodi:namedview
     id="base"
     pagecolor="#ffffff"
     bordercolor="#666666"
     borderopacity="1.0"
     inkscape:pageopacity="0.0"
     inkscape:pageshadow="2"
     inkscape:zoom="1.979899"
     inkscape:cx="110.00953"
     inkscape:cy="29.327798"
     inkscape:document-units="mm"
     inkscape:current-layer="layer1"
     showgrid="false"
     fit-margin-top="0"
     fit-margin-left="0"
     fit-margin-right="0"
     fit-margin-bottom="0"
     inkscape:window-width="1920"
     inkscape:window-height="1012"
     inkscape:window-x="0"
     inkscape:window-y="32"
     inkscape:window-maximized="1" />
  <metadata
     id="metadata3000">
    <rdf:RDF>
      <cc:Work
         rdf:about="">
        <dc:format>image/svg+xml</dc:format>
        <dc:type
           rdf:resource="http://purl.org/dc/dcmitype/StillImage" />
        <dc:title></dc:title>
      </cc:Work>
    </rdf:RDF>
  </metadata>
  <g
     inkscape:label="Layer 1"
     inkscape:groupmode="layer"
     id="layer1"
     transform="translate(-49.061402,-149.84452)">
    <path
       style="display:inline;opacity:1;fill:#ffba3c;fill-opacity:1;stroke-width:0.10442288"
       d="m 59.277858,173.20044 c -3.72258,-0.47954 -7.056077,-2.76054 -8.867668,-6.06784 -0.960409,-1.75337 -1.357842,-3.44183 -1.348632,-5.72955 0.0055,-1.38625 0.04451,-1.76203 0.271164,-2.61827 0.602678,-2.27664 1.473083,-3.80191 3.099001,-5.43061 1.230805,-1.2329 2.189835,-1.91132 3.550955,-2.51197 2.65593,-1.17201 5.5773,-1.31418 8.46411,-0.4119 2.97567,0.93006 5.80813,3.53547 7.04922,6.48416 1.91449,4.54863 0.88238,9.67985 -2.62566,13.05366 -1.69358,1.62877 -3.52662,2.60385 -5.79001,3.07997 -0.93684,0.19707 -2.85781,0.27403 -3.80248,0.15235 z m 4.17691,-1.24516 c 3.07361,-0.84085 5.58662,-2.93684 6.95517,-5.80099 0.81259,-1.70061 0.98171,-2.49602 0.97691,-4.59461 -0.005,-2.14792 -0.18224,-2.95095 -1.03767,-4.69903 -1.39054,-2.84154 -3.87504,-4.89225 -6.91231,-5.7054 -1.2352,-0.3307 -3.52779,-0.38438 -4.83915,-0.11332 -4.24277,0.87699 -7.51917,4.15845 -8.39743,8.41041 -0.228404,1.10573 -0.212873,3.10963 0.03332,4.30249 0.849974,4.11813 4.11915,7.41071 8.25115,8.31017 1.26084,0.27447 3.76802,0.21911 4.97001,-0.10972 z m -3.05959,-1.3839 c -0.21402,-0.21403 -0.15206,-0.78391 0.10481,-0.96383 0.19569,-0.13706 0.26207,-0.14009 0.4438,-0.0202 0.24778,0.1635 0.34085,0.73654 0.15581,0.9595 -0.15129,0.1823 -0.53333,0.19558 -0.70442,0.0245 z m -6.12216,-2.54493 c -0.0902,-0.0902 -0.1641,-0.24653 -0.1641,-0.34728 0,-0.24169 0.42876,-0.63728 0.69071,-0.63728 0.4836,0 0.61251,0.54934 0.21627,0.9216 -0.28592,0.26861 -0.51759,0.28824 -0.74288,0.063 z m 8.95103,-3.30553 -2.95418,-2.9475 v -2.63166 c 0,-2.25319 0.0236,-2.65526 0.1641,-2.79575 0.0902,-0.0903 0.22787,-0.1641 0.30581,-0.1641 0.078,0 0.21556,0.0738 0.30581,0.1641 0.13973,0.13971 0.16409,0.52312 0.16409,2.58199 v 2.41789 l 2.81942,2.82627 c 1.55068,1.55445 2.81942,2.89925 2.81942,2.98845 0,0.1946 -0.3245,0.50781 -0.52611,0.50781 -0.0793,0 -1.47357,-1.32637 -3.09836,-2.9475 z m -11.495969,-2.81664 c -0.171074,-0.17107 -0.157781,-0.55312 0.0245,-0.70441 0.222953,-0.18503 0.795996,-0.092 0.9595,0.15581 0.11991,0.18173 0.116891,0.24811 -0.02019,0.4438 -0.179922,0.25687 -0.749798,0.31883 -0.963832,0.1048 z m 17.059569,-0.1048 c -0.13708,-0.19569 -0.14008,-0.26207 -0.0202,-0.4438 0.16351,-0.24779 0.73655,-0.34084 0.9595,-0.15581 0.1823,0.15129 0.1956,0.53334 0.0245,0.70441 -0.21402,0.21403 -0.78391,0.15207 -0.96382,-0.1048 z m -14.46445,-5.97727 c -0.5172,-0.55053 0.12858,-1.19629 0.6791,-0.6791 0.27517,0.25851 0.33127,0.60777 0.12997,0.80906 -0.2013,0.20131 -0.55056,0.1452 -0.80907,-0.12996 z m 12.02408,0.12996 c -0.35268,-0.35268 0.14782,-1.10848 0.6505,-0.9823 0.16778,0.0421 0.28971,0.16404 0.33182,0.33181 0.12618,0.50269 -0.62962,1.00319 -0.98232,0.65049 z m -5.84729,-2.44035 c -0.25687,-0.17992 -0.31883,-0.74979 -0.10481,-0.96383 0.17109,-0.17108 0.55313,-0.15779 0.70442,0.0245 0.18504,0.22296 0.092,0.796 -0.15581,0.95951 -0.18173,0.11991 -0.24811,0.11688 -0.4438,-0.0202 z"
       id="path3609"
       inkscape:connector-curvature="0" />
  </g>
</svg>
