<?xml version="1.0" encoding="UTF-8" standalone="no"?>
<!-- Created with Inkscape (http://www.inkscape.org/) -->

<svg
   xmlns:dc="http://purl.org/dc/elements/1.1/"
   xmlns:cc="http://creativecommons.org/ns#"
   xmlns:rdf="http://www.w3.org/1999/02/22-rdf-syntax-ns#"
   xmlns:svg="http://www.w3.org/2000/svg"
   xmlns="http://www.w3.org/2000/svg"
   xmlns:sodipodi="http://sodipodi.sourceforge.net/DTD/sodipodi-0.dtd"
   xmlns:inkscape="http://www.inkscape.org/namespaces/inkscape"
   width="23.384331mm"
   height="23.414312mm"
   viewBox="0 0 23.384331 23.414312"
   version="1.1"
   id="svg3003"
   inkscape:version="0.92.2 5c3e80d, 2017-08-06"
   sodipodi:docname="clock.svg">
  <defs
     id="defs2997">
    <style
       id="style2"
       type="text/css"><![CDATA[
    .str1 {stroke:#5489C7;stroke-width:23.6197}
    .str0 {stroke:#FEFEFE;stroke-width:82.6689}
    .fil3 {fill:none}
    .fil7 {fill:#EBECEC}
    .fil6 {fill:#C5C6C6}
    .fil1 {fill:#898989}
    .fil5 {fill:#C2E1FF}
    .fil4 {fill:#C2E1FF;fill-rule:nonzero}
    .fil0 {fill:#C2E1FF;fill-rule:nonzero;fill-opacity:0.501961}
    .fil2 {fill:#5286C4;fill-opacity:0.901961}
   ]]></style>
    <clipPath
       id="id0">
      <path
         inkscape:connector-curvature="0"
         id="path4"
         d="m 1875,1438 h 1525 v 786 H 1875 Z" />
    </clipPath>
  </defs>
  <sodipodi:namedview
     id="base"
     pagecolor="#ffffff"
     bordercolor="#666666"
     borderopacity="1.0"
     inkscape:pageopacity="0.0"
     inkscape:pageshadow="2"
     inkscape:zoom="1.979899"
     inkscape:cx="110.00953"
     inkscape:cy="29.327798"
     inkscape:document-units="mm"
     inkscape:current-layer="layer1"
     showgrid="false"
     fit-margin-top="0"
     fit-margin-left="0"
     fit-margin-right="0"
     fit-margin-bottom="0"
     inkscape:window-width="1920"
     inkscape:window-height="1012"
     inkscape:window-x="0"
     inkscape:window-y="32"
     inkscape:window-maximized="1" />
  <metadata
     id="metadata3000">
    <rdf:RDF>
      <cc:Work
         rdf:about="">
        <dc:format>image/svg+xml</dc:format>
        <dc:type
           rdf:resource="http://purl.org/dc/dcmitype/StillImage" />
        <dc:title></dc:title>
      </cc:Work>
    </rdf:RDF>
  </metadata>
  <g
     inkscape:label="Layer 1"
     inkscape:groupmode="layer"
     id="layer1"
     transform="translate(-49.061402,-149.84452)">
    <g
       style="clip-rule:evenodd;fill-rule:evenodd;image-rendering:optimizeQuality;shape-rendering:geometricPrecision;text-rendering:geometricPrecision"
       id="g3864"
       transform="matrix(0.06425595,0,0,0.06425595,-73.991393,140.53333)">
      <g
         transform="translate(-1,-687.16555)"
         id="Слой_x0020_1">
        <metadata
           id="CorelCorpID_0Corel-Layer" />
        <g
           id="_2208207649632">
          <path
             style="fill:#c2e1ff;fill-opacity:0.50196078;fill-rule:nonzero"
             inkscape:connector-curvature="0"
             id="path10"
             d="m 603,888 v 635 c 0,73 30,140 78,188 48,49 115,79 189,79 h 524 v 82 H 870 c -97,0 -184,-39 -247,-102 -64,-63 -103,-151 -103,-247 V 888 Z"
             class="fil0" />
          <path
             style="fill:#898989"
             inkscape:connector-curvature="0"
             id="path12"
             d="m 1496,1786 h -437 c -16,0 -16,90 0,90 h 437 c 18,0 32,-20 32,-45 v 0 c 0,-25 -14,-45 -32,-45 z"
             class="fil1" />
          <g
             id="g14" />
          <g
             id="g93"
             clip-path="url(#id0)">
            <g
               id="_2208207591712">
              <g
                 id="g90">
                <path
                   style="fill:#5286c4;fill-opacity:0.90196102"
                   inkscape:connector-curvature="0"
                   id="path16"
                   d="m 3111,1444 c 50,0 91,41 91,91 0,51 -41,92 -91,92 -51,0 -92,-41 -92,-92 0,-50 41,-91 92,-91 z"
                   class="fil2" />
                <path
                   style="fill:#5286c4;fill-opacity:0.90196102"
                   inkscape:connector-curvature="0"
                   id="path18"
                   d="m 2545,1497 c 50,0 91,41 91,92 0,50 -41,91 -91,91 -51,0 -92,-41 -92,-91 0,-51 41,-92 92,-92 z"
                   class="fil2" />
                <path
                   style="fill:#5286c4;fill-opacity:0.90196102"
                   inkscape:connector-curvature="0"
                   id="path20"
                   d="m 2715,2054 c 50,0 91,41 91,92 0,50 -41,91 -91,91 -51,0 -92,-41 -92,-91 0,-51 41,-92 92,-92 z"
                   class="fil2" />
                <path
                   style="fill:#5286c4;fill-opacity:0.90196102"
                   inkscape:connector-curvature="0"
                   id="path22"
                   d="m 2409,2085 c 50,0 91,41 91,92 0,51 -41,92 -91,92 -51,0 -92,-41 -92,-92 0,-51 41,-92 92,-92 z"
                   class="fil2" />
                <path
                   style="fill:#5286c4;fill-opacity:0.90196102"
                   inkscape:connector-curvature="0"
                   id="path24"
                   d="m 3079,1510 c 51,0 92,41 92,92 0,51 -41,92 -92,92 -50,0 -91,-41 -91,-92 0,-51 41,-92 91,-92 z"
                   class="fil2" />
                <path
                   style="fill:#5286c4;fill-opacity:0.90196102"
                   inkscape:connector-curvature="0"
                   id="path26"
                   d="m 2963,1510 c 50,0 91,41 91,92 0,51 -41,92 -91,92 -51,0 -92,-41 -92,-92 0,-51 41,-92 92,-92 z"
                   class="fil2" />
                <path
                   style="fill:#5286c4;fill-opacity:0.90196102"
                   inkscape:connector-curvature="0"
                   id="path28"
                   d="m 3157,1871 c 50,0 91,41 91,92 0,51 -41,92 -91,92 -51,0 -92,-41 -92,-92 0,-51 41,-92 92,-92 z"
                   class="fil2" />
                <path
                   style="fill:#5286c4;fill-opacity:0.90196102"
                   inkscape:connector-curvature="0"
                   id="path30"
                   d="m 2937,1391 c 51,0 92,41 92,92 0,50 -41,91 -92,91 -50,0 -91,-41 -91,-91 0,-51 41,-92 91,-92 z"
                   class="fil2" />
                <path
                   style="fill:#5286c4;fill-opacity:0.90196102"
                   inkscape:connector-curvature="0"
                   id="path32"
                   d="m 2901,2001 c 50,0 91,41 91,91 0,51 -41,92 -91,92 -51,0 -92,-41 -92,-92 0,-50 41,-91 92,-91 z"
                   class="fil2" />
                <path
                   style="fill:#5286c4;fill-opacity:0.90196102"
                   inkscape:connector-curvature="0"
                   id="path34"
                   d="m 2964,2114 c 51,0 92,41 92,92 0,51 -41,92 -92,92 -51,0 -92,-41 -92,-92 0,-51 41,-92 92,-92 z"
                   class="fil2" />
                <path
                   style="fill:#5286c4;fill-opacity:0.90196102"
                   inkscape:connector-curvature="0"
                   id="path36"
                   d="m 2513,1429 c 50,0 91,41 91,92 0,50 -41,91 -91,91 -51,0 -92,-41 -92,-91 0,-51 41,-92 92,-92 z"
                   class="fil2" />
                <path
                   style="fill:#5286c4;fill-opacity:0.90196102"
                   inkscape:connector-curvature="0"
                   id="path38"
                   d="m 2414,1392 c 61,0 110,49 110,109 0,60 -49,109 -110,109 -60,0 -109,-49 -109,-109 0,-60 49,-109 109,-109 z"
                   class="fil2" />
                <path
                   style="fill:#5286c4;fill-opacity:0.90196102"
                   inkscape:connector-curvature="0"
                   id="path40"
                   d="m 2571,2038 c 60,0 109,49 109,109 0,61 -49,109 -109,109 -61,0 -110,-48 -110,-109 0,-60 49,-109 110,-109 z"
                   class="fil2" />
                <path
                   style="fill:#5286c4;fill-opacity:0.90196102"
                   inkscape:connector-curvature="0"
                   id="path42"
                   d="m 3148,2010 c 60,0 109,49 109,110 0,60 -49,109 -109,109 -61,0 -110,-49 -110,-109 0,-61 49,-110 110,-110 z"
                   class="fil2" />
                <path
                   style="fill:#5286c4;fill-opacity:0.90196102"
                   inkscape:connector-curvature="0"
                   id="path44"
                   d="m 2657,1437 c 61,0 109,49 109,109 0,61 -48,110 -109,110 -60,0 -109,-49 -109,-110 0,-60 49,-109 109,-109 z"
                   class="fil2" />
                <path
                   style="fill:#5286c4;fill-opacity:0.90196102"
                   inkscape:connector-curvature="0"
                   id="path46"
                   d="m 2650,1351 c 60,0 109,49 109,109 0,61 -49,110 -109,110 -60,0 -109,-49 -109,-110 0,-60 49,-109 109,-109 z"
                   class="fil2" />
                <path
                   style="fill:#5286c4;fill-opacity:0.90196102"
                   inkscape:connector-curvature="0"
                   id="path48"
                   d="m 2837,2047 c 61,0 110,49 110,109 0,60 -49,109 -110,109 -60,0 -109,-49 -109,-109 0,-60 49,-109 109,-109 z"
                   class="fil2" />
                <path
                   style="fill:#5286c4;fill-opacity:0.90196102"
                   inkscape:connector-curvature="0"
                   id="path50"
                   d="m 2816,1411 c 60,0 109,49 109,109 0,61 -49,109 -109,109 -61,0 -110,-48 -110,-109 0,-60 49,-109 110,-109 z"
                   class="fil2" />
                <path
                   style="fill:#5286c4;fill-opacity:0.90196102"
                   inkscape:connector-curvature="0"
                   id="path52"
                   d="m 2301,1392 c 36,0 65,29 65,65 0,36 -29,65 -65,65 -36,0 -65,-29 -65,-65 0,-36 29,-65 65,-65 z"
                   class="fil2" />
                <path
                   style="fill:#5286c4;fill-opacity:0.90196102"
                   inkscape:connector-curvature="0"
                   id="path54"
                   d="m 3026,1402 c 36,0 65,29 65,65 0,36 -29,65 -65,65 -36,0 -65,-29 -65,-65 0,-36 29,-65 65,-65 z"
                   class="fil2" />
                <path
                   style="fill:#5286c4;fill-opacity:0.90196102"
                   inkscape:connector-curvature="0"
                   id="path56"
                   d="m 2899,1527 c 36,0 65,29 65,65 0,36 -29,65 -65,65 -36,0 -65,-29 -65,-65 0,-36 29,-65 65,-65 z"
                   class="fil2" />
                <path
                   style="fill:#5286c4;fill-opacity:0.90196102"
                   inkscape:connector-curvature="0"
                   id="path58"
                   d="m 2467,2012 c 36,0 65,29 65,65 0,36 -29,65 -65,65 -36,0 -65,-29 -65,-65 0,-36 29,-65 65,-65 z"
                   class="fil2" />
                <path
                   style="fill:#5286c4;fill-opacity:0.90196102"
                   inkscape:connector-curvature="0"
                   id="path60"
                   d="m 3111,1663 c 36,0 65,29 65,65 0,36 -29,65 -65,65 -36,0 -65,-29 -65,-65 0,-36 29,-65 65,-65 z"
                   class="fil2" />
                <path
                   style="fill:#5286c4;fill-opacity:0.90196102"
                   inkscape:connector-curvature="0"
                   id="path62"
                   d="m 2990,1981 c 36,0 65,29 65,65 0,36 -29,65 -65,65 -36,0 -65,-29 -65,-65 0,-36 29,-65 65,-65 z"
                   class="fil2" />
                <path
                   style="fill:#5286c4;fill-opacity:0.90196102"
                   inkscape:connector-curvature="0"
                   id="path64"
                   d="m 2846,1568 c 36,0 65,29 65,65 0,36 -29,65 -65,65 -36,0 -65,-29 -65,-65 0,-36 29,-65 65,-65 z"
                   class="fil2" />
                <path
                   style="fill:#5286c4;fill-opacity:0.90196102"
                   inkscape:connector-curvature="0"
                   id="path66"
                   d="m 2438,1565 c 36,0 65,29 65,65 0,36 -29,65 -65,65 -35,0 -65,-29 -65,-65 0,-36 30,-65 65,-65 z"
                   class="fil2" />
                <path
                   style="fill:#5286c4;fill-opacity:0.90196102"
                   inkscape:connector-curvature="0"
                   id="path68"
                   d="m 2736,1996 c 36,0 65,29 65,65 0,36 -29,65 -65,65 -36,0 -65,-29 -65,-65 0,-36 29,-65 65,-65 z"
                   class="fil2" />
                <path
                   style="fill:#5286c4;fill-opacity:0.90196102"
                   inkscape:connector-curvature="0"
                   id="path70"
                   d="m 3036,1892 c 36,0 65,29 65,65 0,36 -29,65 -65,65 -36,0 -65,-29 -65,-65 0,-36 29,-65 65,-65 z"
                   class="fil2" />
                <path
                   style="fill:#5286c4;fill-opacity:0.90196102"
                   inkscape:connector-curvature="0"
                   id="path72"
                   d="m 2209,2181 c 36,0 65,29 65,65 0,36 -29,65 -65,65 -36,0 -65,-29 -65,-65 0,-36 29,-65 65,-65 z"
                   class="fil2" />
                <path
                   style="fill:#5286c4;fill-opacity:0.90196102"
                   inkscape:connector-curvature="0"
                   id="path74"
                   d="m 2290,2129 c 36,0 65,29 65,65 0,36 -29,65 -65,65 -36,0 -65,-29 -65,-65 0,-36 29,-65 65,-65 z"
                   class="fil2" />
                <path
                   style="fill:#5286c4;fill-opacity:0.90196102"
                   inkscape:connector-curvature="0"
                   id="path76"
                   d="m 3021,2047 c 36,0 65,30 65,66 0,35 -29,65 -65,65 -36,0 -65,-30 -65,-65 0,-36 29,-66 65,-66 z"
                   class="fil2" />
                <path
                   style="fill:#5286c4;fill-opacity:0.90196102"
                   inkscape:connector-curvature="0"
                   id="path78"
                   d="m 3088,2131 c 36,0 65,29 65,65 0,36 -29,65 -65,65 -36,0 -65,-29 -65,-65 0,-36 29,-65 65,-65 z"
                   class="fil2" />
                <path
                   style="fill:#5286c4;fill-opacity:0.90196102"
                   inkscape:connector-curvature="0"
                   id="path80"
                   d="m 3238,2170 c 21,0 38,18 38,39 0,21 -17,38 -38,38 -22,0 -39,-17 -39,-38 0,-21 17,-39 39,-39 z"
                   class="fil2" />
                <path
                   style="fill:#5286c4;fill-opacity:0.90196102"
                   inkscape:connector-curvature="0"
                   id="path82"
                   d="m 2268,2095 c 21,0 39,17 39,38 0,22 -18,39 -39,39 -21,0 -38,-17 -38,-39 0,-21 17,-38 38,-38 z"
                   class="fil2" />
                <path
                   style="fill:#5286c4;fill-opacity:0.90196102"
                   inkscape:connector-curvature="0"
                   id="path84"
                   d="m 3072,2003 c 21,0 38,17 38,38 0,21 -17,38 -38,38 -21,0 -38,-17 -38,-38 0,-21 17,-38 38,-38 z"
                   class="fil2" />
                <path
                   style="fill:#5286c4;fill-opacity:0.90196102"
                   inkscape:connector-curvature="0"
                   id="path86"
                   d="m 3166,1417 c 21,0 38,17 38,38 0,22 -17,39 -38,39 -21,0 -38,-17 -38,-39 0,-21 17,-38 38,-38 z"
                   class="fil2" />
                <path
                   style="fill:#5286c4;fill-opacity:0.90196102"
                   inkscape:connector-curvature="0"
                   id="path88"
                   d="m 3052,1658 c 21,0 38,17 38,38 0,21 -17,39 -38,39 -21,0 -38,-18 -38,-39 0,-21 17,-38 38,-38 z"
                   class="fil2" />
              </g>
            </g>
          </g>
          <polygon
             style="fill:none"
             id="polygon95"
             points="1875,1438 3400,1438 3400,2224 1875,2224 "
             class="fil3" />
          <circle
             style="fill:none;stroke:#fefefe;stroke-width:82.66889954"
             id="circle97"
             r="79"
             cy="807"
             cx="562"
             class="fil3 str0" />
          <g
             id="_2208207585504">
            <path
               style="fill:#c2e1ff;fill-rule:nonzero"
               inkscape:connector-curvature="0"
               id="path99"
               d="m 2616,1814 c 4,4 173,21 105,39 -32,9 -102,10 -56,27 32,11 188,17 70,27 -15,1 -35,2 -59,4 -202,11 56,68 -148,42 -1016,-130 -946,-118 35,-244 124,-16 -58,32 125,27 112,-2 197,6 10,47 -49,10 -94,21 -82,31 z"
               class="fil4" />
            <path
               style="fill:#c2e1ff"
               inkscape:connector-curvature="0"
               id="path101"
               d="m 1414,1557 c -1,-3 -47,-44 -20,-36 12,3 33,18 24,2 -6,-11 -51,-45 -12,-24 5,3 11,6 19,11 64,38 3,-36 57,15 312,299 181,205 -84,80 -43,-20 27,1 -30,-35 -35,-23 -58,-43 11,-19 18,6 35,12 35,6 z"
               class="fil5" />
            <path
               style="fill:#c2e1ff"
               inkscape:connector-curvature="0"
               id="path103"
               d="m 1414,2110 c -1,2 -47,43 -20,35 12,-3 33,-17 24,-2 -6,11 -51,45 -12,24 5,-2 11,-6 19,-11 64,-37 3,37 57,-15 312,-299 181,-205 -84,-80 -43,20 27,-1 -30,36 -35,22 -58,42 11,18 18,-6 35,-11 35,-5 z"
               class="fil5" />
            <path
               style="fill:#c2e1ff"
               inkscape:connector-curvature="0"
               id="path105"
               d="m 1323,1658 c -1,0 -52,-9 -33,-1 9,5 30,10 15,10 -10,0 -56,-11 -22,0 5,1 10,3 17,5 59,18 -20,9 41,20 307,55 276,48 3,-50 -35,-13 15,10 -38,-5 -33,-9 -58,-14 -5,8 13,6 26,12 22,13 z"
               class="fil5" />
            <path
               style="fill:#c2e1ff"
               inkscape:connector-curvature="0"
               id="path107"
               d="m 1323,2008 c -1,0 -52,10 -33,1 9,-5 30,-10 15,-10 -10,0 -56,11 -22,0 5,-1 10,-3 17,-5 59,-18 -20,-9 41,-20 307,-54 276,-48 3,51 -35,12 15,-11 -38,4 -33,9 -58,14 -5,-8 13,-6 26,-12 22,-13 z"
               class="fil5" />
          </g>
          <path
             style="fill:#c5c6c6"
             inkscape:connector-curvature="0"
             id="path110"
             d="m 1437,1779 c -24,5 -24,99 0,104 215,48 215,-152 0,-104 z"
             class="fil6" />
          <path
             style="fill:none;stroke:#5489c7;stroke-width:23.61969948"
             inkscape:connector-curvature="0"
             id="path112"
             d="m 1,1438 h 256 c 70,0 126,-57 126,-126 v -256 m 343,0 v 256 c 0,69 56,126 126,126 h 2749"
             class="fil3 str1" />
          <line
             style="fill:none;stroke:#5489c7;stroke-width:23.61969948"
             id="line114"
             y2="2224"
             x2="3601"
             y1="2224"
             x1="1"
             class="fil3 str1" />
          <path
             style="fill:#ebecec"
             inkscape:connector-curvature="0"
             id="path116"
             d="m 1512,1831 c -1,35 8,70 24,74 24,6 47,8 67,8 101,1 153,-56 153,-82 0,0 0,0 0,0 0,-1 0,-1 0,-1 0,-26 -52,-83 -153,-82 -20,0 -43,3 -67,8 -16,4 -25,39 -24,75 z"
             class="fil7" />
        </g>
      </g>
    </g>
  </g>
</svg>
