<?xml version="1.0" encoding="UTF-8" standalone="no"?>
<svg
   xmlns:dc="http://purl.org/dc/elements/1.1/"
   xmlns:cc="http://creativecommons.org/ns#"
   xmlns:rdf="http://www.w3.org/1999/02/22-rdf-syntax-ns#"
   xmlns:svg="http://www.w3.org/2000/svg"
   xmlns="http://www.w3.org/2000/svg"
   id="svg789"
   version="1.1"
   viewBox="0 0 27.096703 26.96893"
   height="26.968929mm"
   width="27.096703mm">
  <defs
     id="defs783">
    <filter
       id="filter7901"
       style="color-interpolation-filters:sRGB">
      <feFlood
         id="feFlood7903"
         result="flood"
         flood-color="rgb(0,0,0)"
         flood-opacity="0.623529" />
      <feComposite
         id="feComposite7905"
         result="composite1"
         operator="in"
         in2="SourceGraphic"
         in="flood" />
      <feGaussianBlur
         id="feGaussianBlur7907"
         result="blur"
         stdDeviation="5.01283"
         in="composite1" />
      <feOffset
         id="feOffset7909"
         result="offset"
         dy="4"
         dx="1" />
      <feComposite
         id="feComposite7911"
         result="composite2"
         operator="over"
         in2="offset"
         in="SourceGraphic" />
    </filter>
    <filter
       id="filter7889"
       style="color-interpolation-filters:sRGB">
      <feFlood
         id="feFlood7891"
         result="flood"
         flood-color="rgb(0,0,0)"
         flood-opacity="0.623529" />
      <feComposite
         id="feComposite7893"
         result="composite1"
         operator="in"
         in2="SourceGraphic"
         in="flood" />
      <feGaussianBlur
         id="feGaussianBlur7895"
         result="blur"
         stdDeviation="5.01283"
         in="composite1" />
      <feOffset
         id="feOffset7897"
         result="offset"
         dy="4"
         dx="1" />
      <feComposite
         id="feComposite7899"
         result="composite2"
         operator="over"
         in2="offset"
         in="SourceGraphic" />
    </filter>
  </defs>
  <metadata
     id="metadata786">
    <rdf:RDF>
      <cc:Work
         rdf:about="">
        <dc:format>image/svg+xml</dc:format>
        <dc:type
           rdf:resource="http://purl.org/dc/dcmitype/StillImage" />
        <dc:title></dc:title>
      </cc:Work>
    </rdf:RDF>
  </metadata>
  <g
     transform="translate(-105.62391,-166.1152)"
     id="layer1">
    <path
       d="m 123.70568,192.79986 c 1.08371,-0.0601 2.00361,-0.31057 2.37858,-0.6477 0.14748,-0.13261 0.59243,-0.79579 1.006,-1.49942 0.0853,-0.1451 0.11586,-0.17629 0.22553,-0.22995 0.1679,-0.0821 0.32774,-0.26516 0.37915,-0.43407 0.0425,-0.13978 0.0376,-0.13386 0.65018,-0.77994 0.27877,-0.29398 0.35373,-0.36127 0.36547,-0.32806 0.008,0.023 0.0164,0.13142 0.0183,0.24096 0.008,0.45376 0.0684,0.69463 0.22392,0.89265 0.20314,0.2586 0.60354,0.38364 0.9408,0.29384 0.14817,-0.0395 0.20373,-0.0687 0.35042,-0.18415 0.21172,-0.16668 0.33231,-0.39563 0.35523,-0.67426 0.0148,-0.17955 -0.003,-0.23699 -0.3075,-1.03899 -0.11205,-0.29435 -0.19789,-0.54102 -0.19074,-0.54817 0.007,-0.007 0.0265,-0.003 0.0429,0.0114 0.10769,0.0877 1.03008,0.59836 1.13707,0.62947 0.39995,0.11626 0.83334,-0.0251 1.03373,-0.33756 0.11639,-0.18134 0.14973,-0.30665 0.14031,-0.52742 -0.007,-0.16121 -0.0212,-0.21934 -0.0853,-0.34972 -0.0856,-0.17375 -0.23754,-0.32568 -0.39767,-0.39759 -0.0702,-0.0315 -0.89641,-0.22992 -0.95747,-0.22992 -0.003,0 0.006,-0.0448 0.0191,-0.0996 0.0305,-0.1314 0.007,-0.37354 -0.0519,-0.54608 -0.21669,-0.62986 -1.0028,-1.295 -1.47585,-1.24872 l -0.082,0.008 -0.0262,-0.4921 c -0.0217,-0.40981 -0.0349,-0.51474 -0.0781,-0.62759 -0.13782,-0.35938 -0.43553,-0.55578 -0.84249,-0.55578 -0.0916,0 -0.16629,0.0103 -0.16629,0.0228 0,0.0124 -0.0145,0.0172 -0.0324,0.0103 -0.057,-0.022 -0.32697,0.11891 -0.4305,0.22455 -0.18672,0.19048 -0.27794,0.48221 -0.23831,0.76219 0.0198,0.14007 0.0652,0.26966 0.36015,1.02857 0.0847,0.21791 0.15129,0.39851 0.14796,0.40134 -0.003,0.003 -0.18532,-0.10578 -0.40442,-0.24132 -0.5947,-0.36796 -0.78129,-0.47091 -0.94565,-0.52184 -0.18857,-0.0584 -0.44309,-0.0606 -0.60092,-0.005 -0.33769,0.11853 -0.62621,0.67439 -0.55367,1.06672 0.0327,0.17703 0.073,0.26519 0.18609,0.40772 0.12133,0.15288 0.2895,0.2368 0.67807,0.33846 0.15788,0.0413 0.28665,0.0813 0.28617,0.089 0,0.008 -0.10247,0.0772 -0.22661,0.15449 -0.12417,0.0773 -0.32557,0.20444 -0.44755,0.28246 l -0.22177,0.14187 -0.19897,-0.0799 c -0.19364,-0.0777 -0.47836,-0.14277 -0.6324,-0.14444 h -0.0762 l -1.8e-4,-0.28704 c 0,-0.15788 -0.0106,-0.3243 -0.023,-0.36984 -0.0127,-0.0455 -0.11425,-0.23005 -0.2258,-0.41007 -0.11154,-0.18003 -0.25553,-0.41458 -0.31998,-0.52126 -0.0644,-0.10668 -0.14584,-0.2109 -0.18087,-0.23159 l -0.0637,-0.0377 -0.0156,-0.49482 c -0.0546,-1.71715 -0.28839,-3.67327 -0.63648,-5.32654 -0.30866,-1.46593 -0.74438,-2.97575 -1.1567,-4.0081 -0.0784,-0.19634 -0.14259,-0.367 -0.14259,-0.37925 0,-0.0341 -0.32493,-0.78695 -0.52676,-1.22042 -0.1797,-0.38597 -0.34925,-0.71689 -0.54343,-1.06066 -0.0565,-0.10006 -0.13033,-0.23188 -0.16406,-0.29292 -0.0337,-0.061 -0.15439,-0.26006 -0.26818,-0.44228 -1.77171,-2.83744 -4.14224,-4.72167 -6.76,-5.37329 -1.38065,-0.34366 -2.7767,-0.24352 -3.85535,0.27655 -0.52457,0.25291 -0.98444,0.58957 -1.47505,1.07984 -0.90345,0.90278 -1.4886,1.99461 -1.84968,3.4513 -0.11806,0.47633 -0.17021,0.77039 -0.25876,1.45929 -0.0818,0.63595 -0.15325,0.96334 -0.24932,1.14178 -0.0586,0.1088 -0.0769,0.12462 -0.16378,0.14166 l -0.0978,0.0191 -0.0132,0.14544 c -0.0322,0.35237 -0.0883,1.66198 -0.0799,1.86587 0.0111,0.27146 0.0713,0.42243 0.19032,0.47752 0.11594,0.0536 1.1698,0.1325 2.2847,0.17094 l 0.47551,0.0164 0.0714,-0.0679 c 0.0393,-0.0373 0.09,-0.10477 0.11273,-0.14988 0.089,-0.17701 0.0911,-0.19931 0.17971,-1.97253 l 0.0161,-0.32049 -0.0829,-0.0156 c -0.0665,-0.0124 -0.0904,-0.0325 -0.12054,-0.1013 -0.1084,-0.24694 -0.14367,-0.57293 -0.10858,-1.00381 0.0653,-0.80264 0.24272,-1.58139 0.51935,-2.27973 0.37359,-0.94316 0.86481,-1.53778 1.5549,-1.88224 0.72268,-0.36076 1.49466,-0.4028 2.64795,-0.1442 0.84243,0.18889 1.77586,0.64291 2.60035,1.26481 1.53871,1.16063 2.84007,3.0176 3.84712,5.48974 1.06389,2.61159 1.6895,5.64861 1.86132,9.03586 l 0.0284,0.56026 -0.0714,0.0607 c -0.0477,0.0405 -0.16634,0.24895 -0.35687,0.62661 -0.24643,0.48853 -0.28723,0.58539 -0.29842,0.70885 -0.0201,0.22296 0.0236,0.25035 -0.70945,-0.44344 -0.58833,-0.55685 -0.74039,-0.68591 -0.9071,-0.76989 -0.1025,-0.0516 -0.24567,-0.0642 -0.33917,-0.0297 -0.0298,0.0111 -0.0833,0.027 -0.11869,0.0356 l -0.0644,0.0156 v -0.44109 -0.44106 l 0.0761,-0.071 c 0.0419,-0.039 0.25543,-0.2118 0.47453,-0.38396 0.2191,-0.17214 0.40892,-0.32475 0.4218,-0.33915 0.013,-0.0143 0.0814,-0.07 0.15232,-0.12369 0.19087,-0.14451 0.38238,-0.35047 0.36587,-0.39351 -0.008,-0.0198 -0.005,-0.0305 0.006,-0.0238 0.0246,0.0154 0.0902,-0.13258 0.10989,-0.24765 0.0188,-0.10959 -0.0267,-0.32938 -0.0968,-0.4681 -0.0781,-0.15451 -0.24434,-0.31064 -0.42621,-0.40023 -0.14238,-0.0701 -0.17645,-0.0772 -0.36867,-0.0772 -0.19101,0 -0.22672,0.007 -0.36375,0.075 -0.20003,0.0987 -0.35587,0.2627 -0.66358,0.69829 -0.36351,0.51464 -0.40759,0.56853 -0.51533,0.6301 -0.16478,0.0942 -0.259,0.0987 -0.38052,0.0183 -0.0573,-0.038 -0.1437,-0.076 -0.19196,-0.0845 -0.0483,-0.008 -0.13144,-0.038 -0.18481,-0.0657 -0.0856,-0.0443 -0.10776,-0.0469 -0.18748,-0.0222 -0.12798,0.0395 -0.80484,0.61912 -1.25622,1.07561 -0.35075,0.35473 -0.36904,0.3778 -0.3689,0.46532 0,0.0506 0.0156,0.12153 0.0343,0.15751 0.0188,0.036 0.0407,0.10454 0.0488,0.15232 0.008,0.0478 0.041,0.14055 0.0731,0.20611 0.0519,0.10604 0.0555,0.12994 0.0324,0.21571 -0.0143,0.053 -0.0544,0.13023 -0.0892,0.17153 -0.0347,0.0413 -0.32181,0.24607 -0.63793,0.45503 -0.62434,0.41273 -0.77867,0.54825 -0.88652,0.77833 -0.0542,0.11567 -0.0631,0.16473 -0.0625,0.3457 0,0.1859 0.009,0.22926 0.0732,0.36568 0.0973,0.20786 0.21588,0.33301 0.4027,0.42498 0.14039,0.0691 0.17528,0.0764 0.36655,0.0764 0.3678,0 0.39156,-0.0196 1.41362,-1.16694 0.1457,-0.16357 0.28866,-0.30335 0.31766,-0.31062 0.0447,-0.0111 0.19589,0.01 0.71212,0.0996 0.0419,0.007 0.0761,0.0159 0.0761,0.019 0,0.003 -0.0167,0.0519 -0.037,0.10824 -0.0204,0.0564 -0.0378,0.16053 -0.0388,0.23144 -0.003,0.15441 0.0474,0.26315 0.23508,0.51551 0.1135,0.15266 0.88167,1.09275 0.91908,1.1248 0.066,0.0566 0.13631,0.19439 0.14896,0.29212 0.0206,0.15867 0.10396,0.2767 0.24321,0.34404 l 0.11398,0.0551 0.58251,1.14822 c 0.32038,0.63153 0.62346,1.21351 0.67349,1.29328 0.32047,0.51094 1.09035,0.81015 2.24441,0.87233 0.49675,0.0267 0.57854,0.0269 1.04227,0 z"
       style="display:inline;fill:none;fill-opacity:1;stroke:#00ffff;stroke-width:0.52916664;stroke-miterlimit:4;stroke-dasharray:none;stroke-opacity:1"
       id="path4162" />
  </g>
</svg>
