<?xml version="1.0" encoding="UTF-8" standalone="no"?>
<svg
   xmlns:dc="http://purl.org/dc/elements/1.1/"
   xmlns:cc="http://creativecommons.org/ns#"
   xmlns:rdf="http://www.w3.org/1999/02/22-rdf-syntax-ns#"
   xmlns:svg="http://www.w3.org/2000/svg"
   xmlns="http://www.w3.org/2000/svg"
   id="svg789"
   version="1.1"
   viewBox="0 0 18.493746 27.050508"
   height="27.050508mm"
   width="18.493746mm">
  <defs
     id="defs783">
    <filter
       id="filter7901"
       style="color-interpolation-filters:sRGB">
      <feFlood
         id="feFlood7903"
         result="flood"
         flood-color="rgb(0,0,0)"
         flood-opacity="0.623529" />
      <feComposite
         id="feComposite7905"
         result="composite1"
         operator="in"
         in2="SourceGraphic"
         in="flood" />
      <feGaussianBlur
         id="feGaussianBlur7907"
         result="blur"
         stdDeviation="5.01283"
         in="composite1" />
      <feOffset
         id="feOffset7909"
         result="offset"
         dy="4"
         dx="1" />
      <feComposite
         id="feComposite7911"
         result="composite2"
         operator="over"
         in2="offset"
         in="SourceGraphic" />
    </filter>
    <filter
       id="filter7889"
       style="color-interpolation-filters:sRGB">
      <feFlood
         id="feFlood7891"
         result="flood"
         flood-color="rgb(0,0,0)"
         flood-opacity="0.623529" />
      <feComposite
         id="feComposite7893"
         result="composite1"
         operator="in"
         in2="SourceGraphic"
         in="flood" />
      <feGaussianBlur
         id="feGaussianBlur7895"
         result="blur"
         stdDeviation="5.01283"
         in="composite1" />
      <feOffset
         id="feOffset7897"
         result="offset"
         dy="4"
         dx="1" />
      <feComposite
         id="feComposite7899"
         result="composite2"
         operator="over"
         in2="offset"
         in="SourceGraphic" />
    </filter>
  </defs>
  <metadata
     id="metadata786">
    <rdf:RDF>
      <cc:Work
         rdf:about="">
        <dc:format>image/svg+xml</dc:format>
        <dc:type
           rdf:resource="http://purl.org/dc/dcmitype/StillImage" />
        <dc:title></dc:title>
      </cc:Work>
    </rdf:RDF>
  </metadata>
  <g
     transform="translate(-112.1723,-206.78)"
     id="layer1">
    <path
       id="path4452"
       d="m 116.50091,233.48863 c -0.0427,-0.0159 -0.14174,-0.0884 -0.22003,-0.16132 -0.13197,-0.12298 -0.14237,-0.16237 -0.14237,-0.53933 0,-0.74591 0.25082,-1.65055 0.60262,-2.17328 0.0972,-0.14441 0.17025,-0.26821 0.16237,-0.27509 -0.008,-0.007 -0.15409,-0.083 -0.32493,-0.16925 -1.71615,-0.86604 -2.91876,-2.69188 -3.07478,-4.66813 -0.0343,-0.43521 -0.0608,-0.55205 -0.13489,-0.59536 -0.41751,-0.24408 -0.57644,-0.3937 -0.74784,-0.70406 -0.1679,-0.30401 -0.18418,-0.37002 -0.18418,-0.74761 0,-0.48794 0.11674,-0.77755 0.44614,-1.10699 0.37452,-0.37451 0.58857,-0.44376 1.43055,-0.46291 l 0.73774,-0.0167 v -0.27988 c 0,-0.15393 0.0357,-0.36901 0.0793,-0.47797 0.079,-0.1973 0.0782,-0.20036 -0.1773,-0.73879 -1.09879,-2.31569 -1.24502,-5.18266 -0.3946,-7.73684 0.97722,-2.93495 3.18074,-5.03198 5.79917,-5.51889 0.46646,-0.0867 1.65613,-0.0867 2.12259,0 2.61842,0.48691 4.82195,2.58394 5.79916,5.51889 0.85043,2.55418 0.70419,5.42115 -0.39462,7.73684 -0.25548,0.53843 -0.25622,0.54149 -0.17727,0.73879 0.0436,0.10896 0.0793,0.32404 0.0793,0.47797 v 0.27988 l 0.73771,0.0167 c 0.84201,0.019 1.05606,0.0884 1.43057,0.46291 0.32941,0.32944 0.44614,0.61905 0.44614,1.10699 0,0.37759 -0.0164,0.4436 -0.18417,0.74761 -0.17143,0.31036 -0.33034,0.45998 -0.74787,0.70406 -0.074,0.0433 -0.10052,0.16015 -0.13489,0.59536 -0.156,1.97625 -1.35861,3.80209 -3.07475,4.66813 -0.17084,0.0862 -0.31707,0.1624 -0.32493,0.16925 -0.008,0.007 0.0652,0.13068 0.16237,0.27509 0.35177,0.52273 0.60262,1.42737 0.60262,2.17328 0,0.38619 -0.008,0.41432 -0.1587,0.55872 l -0.1587,0.15206 -4.90191,0.009 c -2.69605,0.005 -4.93686,-0.004 -4.97956,-0.0193 z m 9.07571,-1.03823 c 0.0359,-0.0637 -0.11435,-0.71749 -0.22341,-0.97194 -0.0558,-0.13007 -0.16275,-0.31695 -0.23778,-0.41532 l -0.1364,-0.17881 h -3.55989 -3.55991 l -0.1364,0.17881 c -0.075,0.0984 -0.182,0.28525 -0.23775,0.41532 -0.10909,0.25445 -0.25934,0.90823 -0.22341,0.97194 0.0122,0.0214 1.8829,0.0388 4.15747,0.0388 2.27455,0 4.14542,-0.0175 4.15748,-0.0388 z m -0.72525,-2.82313 c 1.74276,-0.54229 2.998,-1.9018 3.35558,-3.63437 0.053,-0.25678 0.0967,-0.57753 0.097,-0.71279 v -0.2459 h -6.88552 -6.88554 v 0.2459 c 0,0.37645 0.17433,1.13382 0.36325,1.58758 0.51408,1.23492 1.63676,2.28481 2.8776,2.69108 0.69395,0.2272 0.79471,0.23313 3.77344,0.2214 l 2.84739,-0.0111 0.45543,-0.14171 z m 4.20161,-5.70849 c 0.40606,-0.19267 0.40598,-0.76422 0,-0.9339 -0.26728,-0.11168 -15.07532,-0.10964 -15.29141,0.003 -0.37854,0.19576 -0.36623,0.72802 0.0214,0.93022 0.13875,0.0723 0.95086,0.081 7.62836,0.0813 6.63319,0 7.49203,-0.009 7.64167,-0.0797 z m -8.2292,-2.1213 c -1.49998,-0.32985 -2.64684,-1.50987 -3.26152,-3.35576 -0.27824,-0.83555 -0.35669,-1.37459 -0.35536,-2.44152 0,-0.76385 0.022,-1.02992 0.11663,-1.47548 0.38586,-1.8166 1.17049,-3.07223 2.38453,-3.81598 0.61544,-0.37705 0.90585,-0.45413 1.71108,-0.45413 0.80524,0 1.09562,0.0771 1.71109,0.45413 1.21404,0.74375 1.99864,1.99938 2.38453,3.81598 0.15216,0.71628 0.16555,2.14831 0.0271,2.89917 -0.42984,2.33128 -1.76429,3.98587 -3.52734,4.37359 -0.28067,0.0617 -0.14465,0.0688 1.41076,0.0735 l 1.72138,0.005 v -0.36158 c 0,-0.32637 0.0148,-0.37807 0.15105,-0.53068 0.14816,-0.16581 0.16126,-0.16954 0.68193,-0.19494 l 0.53086,-0.0259 0.24538,-0.47874 c 0.4972,-0.97012 0.80013,-1.96374 0.94848,-3.11115 0.2268,-1.75417 -0.0672,-3.59548 -0.82736,-5.18163 -1.257,-2.62292 -3.47863,-4.08048 -5.91084,-3.87803 -2.06692,0.17209 -3.91512,1.60412 -5.00488,3.87803 -0.47226,0.98541 -0.7402,1.96956 -0.85683,3.1469 -0.17431,1.75953 0.16946,3.5683 0.97798,5.14588 l 0.24535,0.47874 0.48778,0.0275 c 0.73467,0.0415 0.87609,0.16002 0.87609,0.73467 v 0.35089 l 1.72138,-0.005 c 1.55541,-0.005 1.69143,-0.0116 1.41076,-0.0735 z m 1.56011,-1.23838 c 0.30896,-0.15158 0.50083,-0.29519 0.79547,-0.59544 0.58214,-0.59325 0.9606,-1.30911 1.22465,-2.31648 0.18159,-0.69268 0.22805,-1.97872 0.099,-2.73921 -0.28752,-1.69394 -1.18057,-3.05443 -2.29563,-3.49721 -0.42072,-0.16706 -1.15568,-0.16706 -1.57639,0 -1.11506,0.44278 -2.00811,1.80327 -2.29566,3.49721 -0.12906,0.76049 -0.0826,2.04653 0.099,2.73921 0.41336,1.57697 1.24204,2.66112 2.3309,3.04956 0.20185,0.072 0.37931,0.0909 0.73861,0.0785 0.42686,-0.0148 0.51266,-0.0358 0.88011,-0.21609 z"
       style="display:inline;fill:none;stroke:#00ffff;stroke-width:0.52916664;stroke-miterlimit:4;stroke-dasharray:none;stroke-opacity:1" />
  </g>
</svg>
