<?xml version="1.0" encoding="UTF-8" standalone="no"?>
<!-- Created with Inkscape (http://www.inkscape.org/) -->

<svg
   xmlns:dc="http://purl.org/dc/elements/1.1/"
   xmlns:cc="http://creativecommons.org/ns#"
   xmlns:rdf="http://www.w3.org/1999/02/22-rdf-syntax-ns#"
   xmlns:svg="http://www.w3.org/2000/svg"
   xmlns="http://www.w3.org/2000/svg"
   xmlns:sodipodi="http://sodipodi.sourceforge.net/DTD/sodipodi-0.dtd"
   xmlns:inkscape="http://www.inkscape.org/namespaces/inkscape"
   width="26.987671mm"
   height="26.987499mm"
   viewBox="0 0 26.987671 26.987499"
   version="1.1"
   id="svg8"
   inkscape:version="0.92.2 5c3e80d, 2017-08-06"
   sodipodi:docname="vantus.svg">
  <defs
     id="defs2" />
  <sodipodi:namedview
     id="base"
     pagecolor="#ffffff"
     bordercolor="#666666"
     borderopacity="1.0"
     inkscape:pageopacity="0.0"
     inkscape:pageshadow="2"
     inkscape:zoom="0.35"
     inkscape:cx="18.143179"
     inkscape:cy="90.999996"
     inkscape:document-units="mm"
     inkscape:current-layer="layer1"
     showgrid="false"
     fit-margin-top="0"
     fit-margin-left="0"
     fit-margin-right="0"
     fit-margin-bottom="0"
     inkscape:window-width="1920"
     inkscape:window-height="1012"
     inkscape:window-x="0"
     inkscape:window-y="32"
     inkscape:window-maximized="1" />
  <metadata
     id="metadata5">
    <rdf:RDF>
      <cc:Work
         rdf:about="">
        <dc:format>image/svg+xml</dc:format>
        <dc:type
           rdf:resource="http://purl.org/dc/dcmitype/StillImage" />
        <dc:title></dc:title>
      </cc:Work>
    </rdf:RDF>
  </metadata>
  <g
     inkscape:label="Layer 1"
     inkscape:groupmode="layer"
     id="layer1"
     transform="translate(-87.803784,-145.92292)">
    <g
       id="g885"
       transform="matrix(0.05271027,0,0,0.05271027,87.803797,145.92281)"
       style="display:inline;fill:#02f1f1;fill-opacity:1">
      <g
         id="g819"
         style="fill:#02f1f1;fill-opacity:1">
        <g
           id="g817"
           style="fill:#02f1f1;fill-opacity:1">
          <path
             id="path815"
             d="M 512,32.002 C 512,23.447 508.672,15.416 502.625,9.369 496.578,3.33 488.547,0.002 480,0.002 c -8.547,0 -16.594,3.328 -22.624,9.367 l -227.983,227.975 -7.531,-7.546 c -4.172,-4.164 -10.922,-4.164 -15.094,0 l -36.25,36.257 c -18.031,-8.758 -37.047,-13.375 -56.031,-13.375 -33.547,0 -65.531,14.258 -92.515,41.243 l -3.766,3.766 c -4.156,-4.172 -10.922,-4.172 -15.078,0 -4.171,4.156 -4.171,10.906 0,15.078 L 199.22,508.874 c 2.094,2.078 4.812,3.125 7.547,3.125 2.735,0 5.469,-1.047 7.547,-3.125 4.172,-4.172 4.172,-10.922 0,-15.094 l 3.75,-3.75 c 28.875,-28.875 43.062,-63.125 41.078,-99.107 -0.938,-16.719 -5.469,-33.453 -13.234,-49.422 l 36.281,-36.281 c 4.172,-4.156 4.172,-10.906 0,-15.078 L 274.658,282.595 502.625,54.627 C 508.672,48.58 512,40.549 512,32.002 Z M 202.987,474.936 199.221,478.702 33.301,312.766 37.051,309 c 22.906,-22.891 49.671,-35 77.437,-35 29.656,0 59.749,13.781 84.733,38.766 23.359,23.359 37.078,51.531 38.609,79.328 1.656,29.748 -10.39,58.404 -34.843,82.842 z m 31.843,-152.53 c -5.859,-8.641 -12.734,-16.938 -20.515,-24.719 -7.812,-7.812 -16.094,-14.688 -24.719,-20.547 l 24.719,-24.711 15.078,15.086 c -4.156,4.164 -4.156,10.922 0,15.078 2.093,2.094 4.812,3.125 7.546,3.125 2.734,0 5.469,-1.031 7.547,-3.125 l 15.078,15.094 z M 487.547,39.541 259.564,267.516 244.486,252.43 472.453,24.455 c 2.016,-2.016 4.703,-3.125 7.547,-3.125 2.844,0 5.531,1.109 7.547,3.125 2.016,2.016 3.125,4.695 3.125,7.547 0,2.844 -1.11,5.523 -3.125,7.539 z"
             inkscape:connector-curvature="0"
             style="fill:#02f1f1;fill-opacity:1" />
        </g>
      </g>
      <g
         id="g825"
         style="fill:#02f1f1;fill-opacity:1">
        <g
           id="g823"
           style="fill:#02f1f1;fill-opacity:1">
          <path
             id="path821"
             d="m 191.689,320.311 c -32.92,-32.92 -67.842,-35.53 -91.342,-31.905 -25.172,3.859 -42.609,15.5 -43.328,16 -4.875,3.297 -6.172,9.938 -2.875,14.812 3.297,4.891 9.921,6.172 14.796,2.875 0.141,-0.094 14.781,-9.75 35.422,-12.719 26.796,-3.875 51.093,4.875 72.233,26.031 2.094,2.062 4.812,3.109 7.547,3.109 2.735,0 5.453,-1.047 7.547,-3.109 4.156,-4.188 4.156,-10.938 0,-15.094 z"
             inkscape:connector-curvature="0"
             style="fill:#02f1f1;fill-opacity:1" />
        </g>
      </g>
      <g
         id="g827"
         style="fill:#02f1f1;fill-opacity:1" />
      <g
         id="g829"
         style="fill:#02f1f1;fill-opacity:1" />
      <g
         id="g831"
         style="fill:#02f1f1;fill-opacity:1" />
      <g
         id="g833"
         style="fill:#02f1f1;fill-opacity:1" />
      <g
         id="g835"
         style="fill:#02f1f1;fill-opacity:1" />
      <g
         id="g837"
         style="fill:#02f1f1;fill-opacity:1" />
      <g
         id="g839"
         style="fill:#02f1f1;fill-opacity:1" />
      <g
         id="g841"
         style="fill:#02f1f1;fill-opacity:1" />
      <g
         id="g843"
         style="fill:#02f1f1;fill-opacity:1" />
      <g
         id="g845"
         style="fill:#02f1f1;fill-opacity:1" />
      <g
         id="g847"
         style="fill:#02f1f1;fill-opacity:1" />
      <g
         id="g849"
         style="fill:#02f1f1;fill-opacity:1" />
      <g
         id="g851"
         style="fill:#02f1f1;fill-opacity:1" />
      <g
         id="g853"
         style="fill:#02f1f1;fill-opacity:1" />
      <g
         id="g855"
         style="fill:#02f1f1;fill-opacity:1" />
    </g>
  </g>
</svg>
