<?xml version="1.0" encoding="UTF-8" standalone="no"?>
<svg
   xmlns:dc="http://purl.org/dc/elements/1.1/"
   xmlns:cc="http://creativecommons.org/ns#"
   xmlns:rdf="http://www.w3.org/1999/02/22-rdf-syntax-ns#"
   xmlns:svg="http://www.w3.org/2000/svg"
   xmlns="http://www.w3.org/2000/svg"
   id="svg789"
   version="1.1"
   viewBox="0 0 17.357937 26.981176"
   height="26.981176mm"
   width="17.357937mm">
  <defs
     id="defs783">
    <filter
       id="filter7901"
       style="color-interpolation-filters:sRGB">
      <feFlood
         id="feFlood7903"
         result="flood"
         flood-color="rgb(0,0,0)"
         flood-opacity="0.623529" />
      <feComposite
         id="feComposite7905"
         result="composite1"
         operator="in"
         in2="SourceGraphic"
         in="flood" />
      <feGaussianBlur
         id="feGaussianBlur7907"
         result="blur"
         stdDeviation="5.01283"
         in="composite1" />
      <feOffset
         id="feOffset7909"
         result="offset"
         dy="4"
         dx="1" />
      <feComposite
         id="feComposite7911"
         result="composite2"
         operator="over"
         in2="offset"
         in="SourceGraphic" />
    </filter>
    <filter
       id="filter7889"
       style="color-interpolation-filters:sRGB">
      <feFlood
         id="feFlood7891"
         result="flood"
         flood-color="rgb(0,0,0)"
         flood-opacity="0.623529" />
      <feComposite
         id="feComposite7893"
         result="composite1"
         operator="in"
         in2="SourceGraphic"
         in="flood" />
      <feGaussianBlur
         id="feGaussianBlur7895"
         result="blur"
         stdDeviation="5.01283"
         in="composite1" />
      <feOffset
         id="feOffset7897"
         result="offset"
         dy="4"
         dx="1" />
      <feComposite
         id="feComposite7899"
         result="composite2"
         operator="over"
         in2="offset"
         in="SourceGraphic" />
    </filter>
  </defs>
  <metadata
     id="metadata786">
    <rdf:RDF>
      <cc:Work
         rdf:about="">
        <dc:format>image/svg+xml</dc:format>
        <dc:type
           rdf:resource="http://purl.org/dc/dcmitype/StillImage" />
        <dc:title></dc:title>
      </cc:Work>
    </rdf:RDF>
  </metadata>
  <g
     transform="translate(-116.69447,-185.1031)"
     id="layer1">
    <path
       id="path4391"
       d="m 123.07313,211.79508 c -2.24293,-0.30861 -3.32708,-0.55687 -4.77338,-1.09294 l -0.85516,-0.317 -0.0309,-11.51813 c -0.0292,-10.89274 -0.0424,-11.5162 -0.24276,-11.48257 -0.15295,0.0257 -0.21188,-0.0455 -0.21188,-0.2558 0,-0.26972 0.0697,-0.3026 0.9383,-0.44254 0.51607,-0.0832 1.69412,-0.33669 2.61794,-0.56341 4.24376,-1.04156 5.13398,-1.02965 9.69341,0.12957 1.16006,0.29493 2.43991,0.60129 2.84416,0.68083 0.60407,0.11885 0.73496,0.18745 0.73496,0.3851 0,0.19126 -0.062,0.22865 -0.30268,0.18266 l -0.30266,-0.0579 v 11.47202 11.47201 l -0.75671,0.30046 c -2.02258,0.80312 -3.60195,1.07225 -6.56804,1.11924 -1.33178,0.0212 -2.58487,0.0159 -2.78463,-0.0116 z m 4.66439,-0.6623 c 1.38113,-0.17161 2.64062,-0.43733 3.78259,-0.79809 l 0.94763,-0.29935 -0.0361,-0.68906 c -0.0282,-0.53848 -0.0758,-0.68005 -0.2177,-0.64796 -0.0999,0.0225 -0.81097,0.22251 -1.58019,0.44431 -1.88389,0.54317 -3.46766,0.71176 -5.92321,0.63045 -2.15823,-0.0715 -3.62047,-0.28776 -5.48698,-0.81174 l -1.18599,-0.33295 0.0358,0.68032 0.0358,0.6803 1.15017,0.38031 c 0.96293,0.3184 2.16538,0.57129 3.87424,0.81481 0.69858,0.0996 3.65469,0.0666 4.60386,-0.0513 z m 0.21415,-2.03388 c 0.11192,-0.071 0.14658,-0.37166 0.12105,-1.05109 l -0.0357,-0.9516 -0.90805,-0.16801 c -0.73417,-0.13583 -1.26365,-0.1429 -2.76548,-0.037 -1.02158,0.0721 -1.9069,0.16161 -1.96739,0.19897 -0.0605,0.0374 -0.10993,0.49712 -0.10993,1.02169 v 0.95374 l 0.39349,0.0488 c 0.7671,0.0952 5.11765,0.0823 5.272,-0.0156 z m -6.27083,-11.35211 V 186.5337 l -0.33295,0.0662 c -0.18312,0.0364 -1.00031,0.19256 -1.81597,0.34705 l -1.48302,0.28088 -8e-5,10.43718 -1e-4,10.43718 0.81722,0.24328 c 1.1059,0.32925 2.21189,0.59214 2.54248,0.60439 l 0.27242,0.0101 z m -1.45286,0.0747 v -1.33178 h 0.36322 0.3632 v 1.33178 1.33175 h -0.3632 -0.36322 z m 10.1699,10.83085 c 0.63259,-0.16883 1.35448,-0.3615 1.60419,-0.4281 l 0.454,-0.12112 V 197.698 187.29295 l -0.27239,-0.0642 c -0.53255,-0.12546 -3.27369,-0.66688 -3.37634,-0.66688 -0.0578,0 -0.10443,5.00415 -0.10443,11.19902 v 11.19899 h 0.27241 c 0.14981,0 0.78997,-0.13845 1.42256,-0.30731 z m -1.08963,-10.95193 v -1.2107 h 0.36322 0.36322 v 1.2107 1.21068 h -0.36322 -0.36322 z m -5.91371,8.5239 c 0.0563,-0.0348 0.10234,-4.03355 0.10234,-8.88611 0,-8.29924 -0.0124,-8.82634 -0.21187,-8.88246 -0.11653,-0.0328 -0.38894,-0.0953 -0.60534,-0.13885 l -0.39349,-0.0792 v 9.10537 9.10537 l 0.503,-0.0804 c 0.27665,-0.0442 0.54906,-0.1089 0.60536,-0.14367 z m 4.703,-8.83354 v -9.02671 l -0.51454,0.0372 -0.51456,0.0372 -0.031,8.92042 -0.031,8.9204 0.27318,0.0526 c 0.15026,0.0289 0.39577,0.06 0.5456,0.0691 l 0.27239,0.0164 z m -1.69497,0.007 v -8.77758 h -1.15017 -1.15018 v 8.77758 8.77761 h 1.15018 1.15017 z m -1.64156,-3.50126 c -0.19394,-0.14179 -0.24244,-0.35234 -0.27744,-1.20406 -0.04,-0.97314 -0.0246,-1.0499 0.26688,-1.34155 0.37182,-0.37179 0.7198,-0.39412 1.04678,-0.0672 0.20563,0.20563 0.24212,0.40357 0.24212,1.31299 0,0.88371 -0.0387,1.10591 -0.22141,1.27124 -0.27159,0.2458 -0.74245,0.25853 -1.05693,0.0285 z m 0.673,-1.34154 c 0,-0.44392 -0.0528,-0.78695 -0.12108,-0.78695 -0.0683,0 -0.12107,0.34303 -0.12107,0.78695 0,0.44392 0.0528,0.78695 0.12107,0.78695 0.0683,0 0.12108,-0.34303 0.12108,-0.78695 z m 2.45168,-4.84111 c 0.15951,-0.0664 0.21185,-0.22971 0.21185,-0.66111 0,-0.5035 -0.0392,-0.59084 -0.32351,-0.72038 -0.81912,-0.37322 -3.81076,-0.3727 -4.97332,0 -0.37245,0.11969 -0.39346,0.15779 -0.39346,0.71368 v 0.58727 l 0.69615,0.0785 c 0.38287,0.0432 0.75065,0.10089 0.81721,0.12825 0.19892,0.0817 3.73563,-0.0317 3.96508,-0.12711 z"
       style="display:inline;fill:none;stroke:#00ffff;stroke-width:0.52916664;stroke-miterlimit:4;stroke-dasharray:none;stroke-opacity:1" />
  </g>
</svg>
